<?xml version="1.0" encoding="UTF-8"?>
<svg xmlns="http://www.w3.org/2000/svg" xmlns:xlink="http://www.w3.org/1999/xlink" width="40px" height="px" viewBox="0 0 40 40" version="1.1">
<g id="surface1">
<path style=" stroke:none;fill-rule:nonzero;fill:rgb(0%,15.294118%,19.607843%);fill-opacity:1;" d="M 0 0 L 32.832031 0 C 34.734375 0 36.554688 0.753906 37.902344 2.097656 C 39.246094 3.445312 40 5.265625 40 7.167969 L 40 40 L 7.167969 40 C 5.265625 40 3.445312 39.246094 2.097656 37.902344 C 0.753906 36.554688 0 34.734375 0 32.832031 Z M 0 0 "/>
<path style=" stroke:none;fill-rule:nonzero;fill:rgb(0%,83.137256%,100%);fill-opacity:1;" d="M 32.832031 1.816406 C 34.25 1.820312 35.609375 2.382812 36.613281 3.386719 C 37.617188 4.390625 38.179688 5.75 38.183594 7.167969 L 38.183594 38.183594 L 7.167969 38.183594 C 5.75 38.179688 4.390625 37.617188 3.386719 36.613281 C 2.382812 35.609375 1.820312 34.25 1.816406 32.832031 L 1.816406 1.816406 Z M 32.832031 0 L 0 0 L 0 32.832031 C 0 34.734375 0.753906 36.554688 2.097656 37.902344 C 3.445312 39.246094 5.265625 40 7.167969 40 L 40 40 L 40 7.167969 C 40 5.265625 39.246094 3.445312 37.902344 2.097656 C 36.554688 0.753906 34.734375 0 32.832031 0 Z M 32.832031 0 "/>
<path style=" stroke:none;fill-rule:nonzero;fill:rgb(0%,83.137256%,100%);fill-opacity:1;" d="M 10.957031 26.589844 L 10.957031 13.25 C 10.957031 13.230469 10.957031 13.210938 10.964844 13.191406 C 10.972656 13.171875 10.980469 13.15625 10.996094 13.144531 C 11.007812 13.128906 11.027344 13.117188 11.042969 13.113281 C 11.0625 13.105469 11.082031 13.105469 11.101562 13.105469 C 12.136719 13.078125 13.453125 13.066406 15.050781 13.066406 C 16.933594 13.066406 18.3125 13.488281 19.191406 14.335938 C 19.621094 14.734375 19.957031 15.21875 20.183594 15.757812 C 20.414062 16.296875 20.523438 16.878906 20.511719 17.464844 C 20.511719 19.003906 19.964844 20.152344 18.875 20.910156 C 17.785156 21.667969 16.417969 22.039062 14.773438 22.023438 L 13.558594 22.023438 L 13.558594 26.570312 C 13.558594 26.59375 13.558594 26.617188 13.550781 26.636719 C 13.542969 26.65625 13.53125 26.675781 13.515625 26.691406 C 13.5 26.707031 13.480469 26.722656 13.460938 26.726562 C 13.4375 26.734375 13.414062 26.738281 13.394531 26.734375 L 11.121094 26.734375 C 11.011719 26.730469 10.957031 26.683594 10.957031 26.589844 Z M 13.558594 15.03125 L 13.558594 20.0625 C 14 20.097656 14.441406 20.113281 14.886719 20.101562 C 15.796875 20.101562 16.535156 19.902344 17.105469 19.496094 C 17.679688 19.09375 17.960938 18.4375 17.953125 17.523438 C 17.953125 16.71875 17.707031 16.101562 17.207031 15.664062 C 16.710938 15.226562 15.992188 15.007812 15.050781 15 L 13.816406 15 Z M 28.261719 19.121094 C 27.550781 18.660156 26.71875 18.414062 25.871094 18.410156 C 25.5 18.378906 25.128906 18.472656 24.816406 18.675781 C 24.714844 18.746094 24.628906 18.839844 24.570312 18.953125 C 24.511719 19.0625 24.480469 19.183594 24.480469 19.308594 C 24.480469 19.429688 24.507812 19.550781 24.558594 19.660156 C 24.609375 19.769531 24.683594 19.871094 24.773438 19.949219 C 25.136719 20.230469 25.542969 20.445312 25.980469 20.59375 C 27.109375 21.03125 27.90625 21.492188 28.359375 21.976562 C 28.828125 22.484375 29.070312 23.15625 29.042969 23.84375 C 29.054688 24.277344 28.96875 24.703125 28.785156 25.09375 C 28.601562 25.480469 28.328125 25.824219 27.988281 26.085938 C 27.285156 26.652344 26.335938 26.933594 25.136719 26.933594 C 23.9375 26.933594 22.953125 26.714844 22.183594 26.28125 C 22.140625 26.265625 22.105469 26.238281 22.082031 26.199219 C 22.0625 26.160156 22.050781 26.117188 22.058594 26.074219 L 22.058594 24.171875 C 22.054688 24.152344 22.058594 24.128906 22.070312 24.109375 C 22.078125 24.089844 22.089844 24.074219 22.109375 24.0625 C 22.121094 24.050781 22.136719 24.042969 22.15625 24.042969 C 22.171875 24.042969 22.1875 24.050781 22.203125 24.0625 C 23.015625 24.691406 24.015625 25.035156 25.046875 25.042969 C 25.425781 25.066406 25.808594 24.980469 26.136719 24.789062 C 26.253906 24.71875 26.351562 24.621094 26.417969 24.507812 C 26.484375 24.390625 26.519531 24.257812 26.519531 24.121094 C 26.519531 23.988281 26.496094 23.851562 26.441406 23.726562 C 26.390625 23.601562 26.308594 23.492188 26.210938 23.398438 C 25.851562 23.113281 25.441406 22.894531 25.003906 22.753906 C 23.914062 22.328125 23.15625 21.875 22.730469 21.390625 C 22.292969 20.882812 22.0625 20.226562 22.089844 19.558594 C 22.082031 19.152344 22.164062 18.753906 22.332031 18.386719 C 22.496094 18.019531 22.742188 17.691406 23.050781 17.429688 C 23.6875 16.871094 24.601562 16.589844 25.789062 16.589844 C 26.894531 16.589844 27.746094 16.742188 28.34375 17.046875 C 28.414062 17.085938 28.449219 17.175781 28.449219 17.3125 L 28.449219 19.007812 C 28.449219 19.164062 28.386719 19.203125 28.261719 19.121094 Z M 28.261719 19.121094 "/>
</g>
</svg>
