<?xml version="1.0" encoding="UTF-8"?>
<svg xmlns="http://www.w3.org/2000/svg" xmlns:xlink="http://www.w3.org/1999/xlink" width="40px" height="px" viewBox="0 0 40 32" version="1.1">
<g id="surface1">
<path style=" stroke:none;fill-rule:nonzero;fill:rgb(100%,100%,100%);fill-opacity:1;" d="M 32.105469 23.542969 C 30.554688 25.160156 28.382812 26.070312 26.027344 26.074219 C 23.671875 26.082031 21.496094 25.175781 19.945312 23.5625 C 19.183594 22.777344 18.628906 21.878906 18.28125 20.914062 C 17.945312 19.96875 17.816406 18.957031 17.898438 17.953125 C 17.984375 16.976562 18.269531 16.023438 18.734375 15.167969 C 19.1875 14.328125 19.8125 13.570312 20.585938 12.929688 C 22.09375 11.671875 24.015625 10.992188 26.027344 10.992188 C 28.039062 10.988281 29.960938 11.664062 31.46875 12.914062 C 32.238281 13.554688 32.863281 14.304688 33.316406 15.144531 C 33.785156 16.003906 34.070312 16.953125 34.148438 17.929688 C 34.238281 18.933594 34.105469 19.945312 33.769531 20.890625 C 33.421875 21.851562 32.867188 22.757812 32.105469 23.542969 Z M 32.105469 23.542969 "/>
<path style=" stroke:none;fill-rule:nonzero;fill:rgb(0%,32.549021%,52.156866%);fill-opacity:1;" d="M 21.007812 18.054688 C 21.074219 16.75 21.703125 15.601562 22.648438 14.78125 C 23.582031 13.976562 24.832031 13.492188 26.195312 13.492188 C 27.558594 13.492188 28.808594 13.980469 29.738281 14.78125 C 30.683594 15.601562 31.316406 16.75 31.386719 18.054688 C 31.460938 19.398438 30.929688 20.648438 30 21.574219 C 29.054688 22.515625 27.703125 23.105469 26.195312 23.105469 C 24.683594 23.105469 23.335938 22.515625 22.386719 21.574219 C 21.460938 20.648438 20.929688 19.398438 21.007812 18.054688 Z M 21.007812 18.054688 "/>
<path style=" stroke:none;fill-rule:nonzero;fill:rgb(100%,43.921569%,12.941177%);fill-opacity:1;" d="M 12.734375 20.703125 C 12.746094 21.210938 12.90625 22.207031 13.144531 22.980469 C 13.648438 24.625 14.507812 26.148438 15.695312 27.488281 C 16.917969 28.863281 18.421875 29.96875 20.164062 30.753906 C 21.992188 31.578125 23.96875 32 26.023438 31.992188 C 28.082031 31.992188 30.058594 31.5625 31.886719 30.730469 C 33.625 29.9375 35.128906 28.828125 36.351562 27.449219 C 37.539062 26.101562 38.394531 24.582031 38.898438 22.9375 C 39.148438 22.117188 39.3125 21.273438 39.378906 20.417969 C 39.441406 19.585938 39.414062 18.746094 39.300781 17.917969 C 39.070312 16.292969 38.523438 14.769531 37.671875 13.378906 C 36.894531 12.101562 35.894531 10.984375 34.703125 10.039062 L 22.695312 0.640625 C 22.683594 0.632812 22.675781 0.625 22.664062 0.617188 C 21.875 0 20.550781 0.00390625 19.683594 0.617188 C 18.804688 1.246094 18.707031 2.277344 19.484375 2.929688 L 19.480469 2.933594 L 24.492188 7.085938 L 9.21875 7.101562 L 9.199219 7.101562 C 7.9375 7.105469 6.726562 7.949219 6.484375 9.015625 C 6.238281 10.101562 7.097656 11.003906 8.410156 11.007812 L 8.40625 11.015625 L 16.148438 11 L 2.335938 21.804688 C 2.320312 21.820312 2.300781 21.835938 2.285156 21.847656 C 0.980469 22.863281 0.558594 24.554688 1.378906 25.625 C 2.210938 26.710938 3.980469 26.714844 5.300781 25.632812 L 12.835938 19.34375 C 12.835938 19.34375 12.726562 20.191406 12.734375 20.703125 Z M 32.105469 23.542969 C 30.554688 25.160156 28.382812 26.070312 26.027344 26.074219 C 23.671875 26.082031 21.496094 25.175781 19.945312 23.5625 C 19.183594 22.777344 18.628906 21.878906 18.28125 20.914062 C 17.945312 19.96875 17.816406 18.957031 17.898438 17.953125 C 17.984375 16.976562 18.269531 16.023438 18.734375 15.167969 C 19.1875 14.328125 19.8125 13.570312 20.585938 12.929688 C 22.09375 11.671875 24.015625 10.992188 26.027344 10.992188 C 28.039062 10.988281 29.960938 11.664062 31.46875 12.914062 C 32.238281 13.554688 32.863281 14.304688 33.316406 15.144531 C 33.785156 16.003906 34.070312 16.953125 34.148438 17.929688 C 34.238281 18.933594 34.105469 19.945312 33.769531 20.890625 C 33.421875 21.851562 32.867188 22.757812 32.105469 23.542969 Z M 32.105469 23.542969 "/>
</g>
</svg>
