<?xml version="1.0" encoding="UTF-8"?>
<svg xmlns="http://www.w3.org/2000/svg" xmlns:xlink="http://www.w3.org/1999/xlink" width="45px" height="45px" viewBox="0 0 45 45" version="1.1">
<defs>
<linearGradient id="linear0" gradientUnits="userSpaceOnUse" x1="21.309999" y1="22.93" x2="83.800003" y2="66.690002" gradientTransform="matrix(0.160545,0,0,0.160545,-2.315391,15.305976)">
<stop offset="0.19" style="stop-color:rgb(44.313725%,84.313725%,98.823529%);stop-opacity:1;"/>
<stop offset="0.29" style="stop-color:rgb(40.392157%,79.215686%,94.509804%);stop-opacity:1;"/>
<stop offset="0.47" style="stop-color:rgb(30.588235%,66.27451%,83.529412%);stop-opacity:1;"/>
<stop offset="0.7" style="stop-color:rgb(14.509804%,45.490196%,66.27451%);stop-opacity:1;"/>
<stop offset="0.89" style="stop-color:rgb(0%,26.666667%,50.196078%);stop-opacity:1;"/>
</linearGradient>
</defs>
<g id="surface1">
<path style=" stroke:none;fill-rule:nonzero;fill:rgb(0%,26.666668%,50.196081%);fill-opacity:1;" d="M 40.480469 25.101562 L 41.636719 25.101562 L 41.636719 21.015625 C 42.011719 20.925781 42.394531 20.882812 42.777344 20.886719 C 43.417969 20.886719 43.851562 21.097656 43.851562 21.878906 L 43.851562 25.097656 L 45 25.097656 L 45 21.847656 C 45 20.371094 44.191406 19.792969 42.796875 19.792969 C 42.019531 19.792969 41.050781 19.910156 40.480469 20.128906 Z M 38.414062 22.5 C 38.414062 23.488281 38.191406 24.125 37.160156 24.125 C 36.128906 24.125 35.90625 23.492188 35.90625 22.5 C 35.90625 21.511719 36.136719 20.894531 37.160156 20.894531 C 38.183594 20.894531 38.414062 21.515625 38.414062 22.5 Z M 37.160156 25.21875 C 38.792969 25.21875 39.570312 24.144531 39.570312 22.5 C 39.570312 20.792969 38.851562 19.792969 37.160156 19.792969 C 35.539062 19.792969 34.738281 20.855469 34.738281 22.5 C 34.738281 24.21875 35.464844 25.21875 37.160156 25.21875 Z M 31.019531 23.25 C 31.019531 24.734375 31.828125 25.207031 32.957031 25.207031 C 33.398438 25.214844 33.839844 25.136719 34.253906 24.976562 L 34.074219 23.878906 C 33.71875 24.035156 33.335938 24.117188 32.949219 24.113281 C 32.484375 24.113281 32.179688 23.902344 32.179688 23.257812 L 32.179688 20.992188 L 34.054688 20.992188 L 34.054688 19.898438 L 32.175781 19.898438 L 32.175781 18.527344 L 31.019531 18.527344 Z M 28.953125 22.5 C 28.953125 23.488281 28.730469 24.125 27.699219 24.125 C 26.664062 24.125 26.445312 23.492188 26.445312 22.5 C 26.445312 21.511719 26.675781 20.894531 27.699219 20.894531 C 28.71875 20.894531 28.953125 21.515625 28.953125 22.5 Z M 27.707031 25.21875 C 29.339844 25.21875 30.113281 24.144531 30.113281 22.5 C 30.113281 20.792969 29.398438 19.792969 27.707031 19.792969 C 26.085938 19.792969 25.285156 20.855469 25.285156 22.5 C 25.285156 24.21875 26.011719 25.21875 27.707031 25.21875 Z M 19.847656 25.101562 L 21.007812 25.101562 L 21.007812 21.015625 C 21.382812 20.921875 21.761719 20.878906 22.148438 20.886719 C 22.789062 20.886719 23.222656 21.097656 23.222656 21.878906 L 23.222656 25.097656 L 24.367188 25.097656 L 24.367188 21.878906 C 24.367188 20.328125 23.496094 19.792969 22.199219 19.792969 C 21.796875 19.785156 21.394531 19.832031 21.007812 19.9375 L 21.007812 17.726562 L 19.847656 17.726562 Z M 14.410156 27.335938 L 15.570312 27.335938 L 15.570312 25.070312 C 15.851562 25.171875 16.148438 25.222656 16.445312 25.21875 C 18.035156 25.21875 18.941406 24.199219 18.941406 22.425781 C 18.941406 20.71875 18.140625 19.792969 16.328125 19.792969 C 15.675781 19.789062 15.023438 19.898438 14.402344 20.113281 L 14.402344 27.335938 Z M 17.773438 22.5 C 17.773438 23.574219 17.488281 24.125 16.394531 24.125 C 16.109375 24.144531 15.824219 24.085938 15.570312 23.953125 L 15.570312 21.003906 C 15.832031 20.917969 16.109375 20.878906 16.382812 20.886719 C 17.425781 20.886719 17.773438 21.308594 17.773438 22.492188 Z M 17.773438 22.5 "/>
<path style=" stroke:none;fill-rule:evenodd;fill:url(#linear0);" d="M 3.617188 24.820312 C 3.644531 24.851562 3.675781 24.882812 3.707031 24.914062 L 3.800781 25.007812 L 2.078125 27.09375 C 1.980469 27.007812 1.882812 26.917969 1.789062 26.824219 C 1.699219 26.734375 1.609375 26.640625 1.523438 26.542969 L 3.609375 24.820312 Z M 4.335938 25.417969 L 3.050781 27.808594 C 2.824219 27.675781 2.605469 27.53125 2.398438 27.371094 L 4.113281 25.261719 C 4.1875 25.3125 4.261719 25.359375 4.335938 25.40625 Z M 3.210938 24.296875 C 3.257812 24.371094 3.308594 24.445312 3.359375 24.515625 L 1.257812 26.222656 C 1.097656 26.015625 0.953125 25.796875 0.820312 25.570312 L 3.210938 24.285156 Z M 4.941406 25.714844 L 4.144531 28.296875 C 3.898438 28.210938 3.65625 28.113281 3.421875 27.996094 L 4.691406 25.605469 C 4.773438 25.640625 4.855469 25.675781 4.9375 25.703125 Z M 2.917969 23.683594 C 2.949219 23.765625 2.980469 23.847656 3.019531 23.929688 L 0.625 25.203125 C 0.507812 24.964844 0.410156 24.722656 0.324219 24.476562 Z M 5.585938 25.871094 L 5.316406 28.570312 C 5.054688 28.53125 4.796875 28.480469 4.542969 28.410156 L 5.328125 25.820312 C 5.410156 25.84375 5.5 25.859375 5.585938 25.871094 Z M 2.75 23.035156 C 2.761719 23.125 2.78125 23.210938 2.800781 23.296875 L 0.203125 24.078125 C 0.136719 23.824219 0.0859375 23.566406 0.0507812 23.308594 Z M 2.710938 22.371094 L 2.710938 22.636719 L 0.0117188 22.898438 C -0.00390625 22.636719 -0.00390625 22.375 0.0117188 22.113281 Z M 6.253906 25.910156 L 6.515625 28.609375 C 6.253906 28.625 5.992188 28.625 5.730469 28.609375 L 5.988281 25.910156 C 6.078125 25.917969 6.164062 25.917969 6.253906 25.910156 Z M 6.917969 25.820312 L 7.699219 28.417969 C 7.445312 28.488281 7.1875 28.542969 6.929688 28.578125 L 6.65625 25.882812 C 6.742188 25.867188 6.832031 25.851562 6.917969 25.832031 Z M 2.800781 21.703125 C 2.78125 21.789062 2.761719 21.875 2.75 21.964844 L 0.0507812 21.691406 C 0.0859375 21.433594 0.136719 21.175781 0.203125 20.925781 Z M 7.550781 25.605469 L 8.824219 27.996094 C 8.589844 28.113281 8.34375 28.210938 8.097656 28.296875 L 7.304688 25.703125 C 7.390625 25.671875 7.472656 25.640625 7.550781 25.605469 Z M 3.023438 21.058594 C 2.988281 21.140625 2.953125 21.21875 2.921875 21.304688 L 0.332031 20.503906 C 0.417969 20.253906 0.519531 20.011719 0.636719 19.777344 L 3.023438 21.0625 Z M 8.128906 25.261719 L 9.84375 27.363281 C 9.636719 27.523438 9.417969 27.667969 9.191406 27.800781 L 7.910156 25.417969 C 7.984375 25.375 8.054688 25.328125 8.128906 25.273438 Z M 3.359375 20.492188 C 3.308594 20.5625 3.257812 20.636719 3.210938 20.710938 L 0.824219 19.425781 C 0.957031 19.203125 1.101562 18.984375 1.261719 18.777344 Z M 10.722656 26.542969 C 10.546875 26.738281 10.359375 26.925781 10.164062 27.097656 L 8.441406 25.007812 L 8.539062 24.914062 L 8.628906 24.820312 Z M 2.078125 17.902344 L 3.800781 19.988281 L 3.707031 20.082031 C 3.675781 20.113281 3.644531 20.144531 3.617188 20.175781 L 1.527344 18.453125 C 1.613281 18.355469 1.703125 18.261719 1.796875 18.167969 C 1.890625 18.074219 1.984375 17.984375 2.082031 17.898438 Z M 11.421875 25.570312 C 11.292969 25.796875 11.144531 26.015625 10.988281 26.222656 L 8.886719 24.507812 C 8.9375 24.433594 8.988281 24.359375 9.035156 24.285156 Z M 3.054688 17.199219 L 4.339844 19.585938 C 4.261719 19.632812 4.1875 19.683594 4.117188 19.734375 L 2.402344 17.636719 C 2.609375 17.476562 2.828125 17.332031 3.054688 17.199219 Z M 11.917969 24.476562 C 11.835938 24.722656 11.734375 24.964844 11.617188 25.199219 L 9.222656 23.929688 C 9.261719 23.847656 9.292969 23.765625 9.328125 23.683594 Z M 4.152344 16.699219 L 4.941406 19.296875 C 4.859375 19.324219 4.777344 19.359375 4.695312 19.394531 L 3.425781 17 C 3.660156 16.886719 3.902344 16.785156 4.152344 16.699219 Z M 12.191406 23.308594 C 12.15625 23.566406 12.101562 23.824219 12.03125 24.078125 L 9.441406 23.296875 C 9.464844 23.210938 9.480469 23.125 9.496094 23.035156 Z M 5.316406 16.429688 L 5.585938 19.128906 C 5.5 19.140625 5.414062 19.160156 5.328125 19.179688 L 4.542969 16.589844 C 4.796875 16.519531 5.054688 16.46875 5.316406 16.429688 Z M 12.230469 22.109375 C 12.25 22.371094 12.25 22.628906 12.230469 22.890625 L 9.535156 22.632812 L 9.535156 22.367188 Z M 6.515625 16.390625 L 6.253906 19.089844 L 5.992188 19.089844 L 5.730469 16.390625 C 5.992188 16.375 6.253906 16.375 6.515625 16.390625 Z M 12.039062 20.925781 C 12.109375 21.175781 12.164062 21.433594 12.199219 21.695312 L 9.5 21.96875 C 9.488281 21.878906 9.472656 21.792969 9.449219 21.703125 Z M 7.703125 16.589844 L 6.917969 19.179688 C 6.832031 19.15625 6.746094 19.140625 6.65625 19.125 L 6.929688 16.429688 C 7.1875 16.464844 7.445312 16.511719 7.699219 16.582031 Z M 8.828125 17.011719 L 7.550781 19.398438 C 7.472656 19.359375 7.390625 19.324219 7.304688 19.296875 L 8.097656 16.703125 C 8.34375 16.785156 8.589844 16.886719 8.824219 17.003906 Z M 11.617188 19.800781 C 11.730469 20.035156 11.832031 20.277344 11.917969 20.527344 L 9.328125 21.328125 C 9.296875 21.246094 9.261719 21.167969 9.222656 21.082031 Z M 9.839844 17.632812 L 8.121094 19.734375 C 8.046875 19.683594 7.972656 19.632812 7.898438 19.585938 L 9.183594 17.199219 C 9.410156 17.328125 9.628906 17.472656 9.835938 17.632812 Z M 10.980469 18.769531 C 11.140625 18.976562 11.285156 19.195312 11.417969 19.421875 L 9.03125 20.703125 C 8.984375 20.628906 8.933594 20.554688 8.882812 20.484375 L 10.980469 18.765625 Z M 10.164062 17.902344 C 10.265625 17.988281 10.355469 18.078125 10.453125 18.167969 C 10.546875 18.261719 10.632812 18.355469 10.722656 18.457031 L 8.632812 20.179688 C 8.605469 20.148438 8.574219 20.117188 8.542969 20.085938 L 8.445312 19.992188 L 10.171875 17.90625 Z M 10.164062 17.902344 "/>
</g>
</svg>
