<?xml version="1.0" encoding="UTF-8"?>
<svg xmlns="http://www.w3.org/2000/svg" xmlns:xlink="http://www.w3.org/1999/xlink" width="px" height="50px" viewBox="0 0 50 50" version="1.1">
<g id="surface1">
<path style=" stroke:none;fill-rule:nonzero;fill:rgb(100%,62.7451%,0%);fill-opacity:1;" d="M 30.65625 18.058594 L 25.652344 22.714844 L 21.007812 13.347656 L 23.410156 7.960938 C 24.035156 6.867188 25.011719 6.878906 25.621094 7.960938 Z M 30.65625 18.058594 "/>
<path style=" stroke:none;fill-rule:nonzero;fill:rgb(96.078432%,49.803922%,9.019608%);fill-opacity:1;" d="M 21.007812 13.347656 L 25.652344 22.714844 L 6.949219 40.113281 Z M 21.007812 13.347656 "/>
<path style=" stroke:none;fill-rule:nonzero;fill:rgb(100%,79.215688%,15.686275%);fill-opacity:1;" d="M 36.128906 10.941406 C 37.023438 10.082031 37.949219 10.375 38.183594 11.59375 L 43.054688 39.882812 L 26.914062 49.570312 C 26.351562 49.882812 24.851562 50.015625 24.851562 50.015625 C 24.851562 50.015625 23.488281 49.855469 22.96875 49.546875 L 6.949219 40.113281 Z M 36.128906 10.941406 "/>
<path style=" stroke:none;fill-rule:nonzero;fill:rgb(100%,62.7451%,0%);fill-opacity:1;" d="M 21.007812 13.347656 L 6.949219 40.113281 L 13.210938 0.996094 C 13.441406 -0.222656 14.136719 -0.339844 14.753906 0.734375 Z M 21.007812 13.347656 "/>
</g>
</svg>
