<?xml version="1.0" encoding="UTF-8"?>
<svg xmlns="http://www.w3.org/2000/svg" xmlns:xlink="http://www.w3.org/1999/xlink" width="41px" height="45px" viewBox="0 0 41 45" version="1.1">
<g id="surface1">
<path style=" stroke:none;fill-rule:evenodd;fill:rgb(51.372552%,51.372552%,51.372552%);fill-opacity:1;" d="M 18.589844 0.246094 C 18.5 0.296875 18.414062 0.339844 18.398438 0.34375 C 18.378906 0.347656 18.359375 0.359375 18.351562 0.367188 C 18.324219 0.402344 17.125 1.0625 17.089844 1.066406 C 17.074219 1.066406 17.054688 1.070312 17.054688 1.085938 C 17.054688 1.117188 16.898438 1.1875 16.878906 1.171875 C 16.871094 1.160156 16.863281 1.167969 16.863281 1.183594 C 16.863281 1.214844 16.699219 1.308594 16.699219 1.277344 C 16.699219 1.265625 16.6875 1.269531 16.675781 1.285156 C 16.652344 1.320312 16.382812 1.480469 16.328125 1.488281 C 16.316406 1.492188 16.285156 1.507812 16.273438 1.527344 C 16.230469 1.566406 15.066406 2.207031 15.023438 2.207031 C 15.003906 2.207031 14.992188 2.21875 14.992188 2.230469 C 14.992188 2.253906 14.714844 2.402344 14.679688 2.390625 C 14.667969 2.386719 14.65625 2.398438 14.65625 2.414062 C 14.65625 2.445312 14.507812 2.523438 14.484375 2.503906 C 14.472656 2.492188 14.464844 2.5 14.464844 2.515625 C 14.464844 2.550781 14.3125 2.628906 14.289062 2.609375 C 14.277344 2.597656 14.273438 2.605469 14.273438 2.621094 C 14.273438 2.65625 14.121094 2.738281 14.097656 2.714844 C 14.085938 2.707031 14.078125 2.710938 14.078125 2.726562 C 14.078125 2.757812 13.730469 2.953125 13.671875 2.953125 C 13.65625 2.953125 13.636719 2.964844 13.636719 2.972656 C 13.636719 3.003906 13.359375 3.148438 13.332031 3.140625 C 13.316406 3.136719 13.3125 3.148438 13.3125 3.15625 C 13.3125 3.191406 13.152344 3.265625 13.132812 3.246094 C 13.121094 3.238281 13.117188 3.242188 13.117188 3.261719 C 13.117188 3.277344 13.078125 3.308594 13.03125 3.328125 C 12.992188 3.355469 12.953125 3.363281 12.953125 3.355469 C 12.953125 3.34375 12.933594 3.355469 12.914062 3.375 C 12.871094 3.425781 11.90625 3.964844 11.855469 3.964844 C 11.835938 3.964844 11.820312 3.972656 11.820312 3.988281 C 11.820312 4.007812 11.363281 4.261719 11.335938 4.25 C 11.324219 4.246094 11.3125 4.257812 11.296875 4.273438 C 11.273438 4.308594 9.832031 5.113281 9.789062 5.113281 C 9.769531 5.113281 9.75 5.117188 9.75 5.128906 C 9.75 5.152344 9.285156 5.40625 9.253906 5.402344 C 9.238281 5.398438 9.230469 5.402344 9.230469 5.417969 C 9.230469 5.441406 8.761719 5.707031 8.699219 5.71875 C 8.679688 5.722656 8.660156 5.734375 8.652344 5.746094 C 8.628906 5.78125 7.042969 6.652344 7.003906 6.65625 C 6.988281 6.65625 6.96875 6.664062 6.96875 6.671875 C 6.96875 6.695312 6.113281 7.164062 6.085938 7.15625 C 6.070312 7.15625 6.066406 7.160156 6.066406 7.175781 C 6.066406 7.203125 5.761719 7.371094 5.710938 7.371094 C 5.691406 7.371094 5.675781 7.382812 5.675781 7.394531 C 5.675781 7.417969 5.203125 7.671875 5.175781 7.660156 C 5.164062 7.660156 5.152344 7.667969 5.152344 7.679688 C 5.152344 7.71875 5 7.792969 4.980469 7.769531 C 4.96875 7.761719 4.960938 7.765625 4.960938 7.78125 C 4.960938 7.8125 4.742188 7.933594 4.738281 7.902344 C 4.738281 7.894531 4.726562 7.894531 4.71875 7.917969 C 4.691406 7.957031 3.941406 8.382812 3.894531 8.382812 C 3.871094 8.382812 3.859375 8.390625 3.859375 8.40625 C 3.859375 8.433594 3.703125 8.511719 3.679688 8.488281 C 3.671875 8.484375 3.664062 8.484375 3.664062 8.503906 C 3.664062 8.539062 3.511719 8.621094 3.488281 8.597656 C 3.476562 8.585938 3.472656 8.59375 3.472656 8.605469 C 3.472656 8.636719 3.175781 8.804688 3.121094 8.804688 C 3.101562 8.804688 3.085938 8.816406 3.085938 8.832031 C 3.085938 8.855469 2.78125 9.019531 2.738281 9.019531 C 2.714844 9.019531 2.703125 9.03125 2.703125 9.042969 C 2.703125 9.066406 2.007812 9.445312 1.964844 9.445312 C 1.941406 9.445312 1.929688 9.457031 1.929688 9.472656 C 1.929688 9.5 1.777344 9.574219 1.75 9.554688 C 1.742188 9.546875 1.738281 9.546875 1.738281 9.566406 C 1.738281 9.578125 1.625 9.652344 1.496094 9.726562 C 1.359375 9.796875 1.054688 9.972656 0.816406 10.109375 C 0.570312 10.242188 0.355469 10.351562 0.335938 10.351562 C 0.316406 10.351562 0.304688 10.359375 0.304688 10.375 C 0.304688 10.386719 0.242188 10.425781 0.167969 10.464844 C 0.0117188 10.546875 0.0117188 10.558594 0.175781 10.644531 C 0.238281 10.675781 0.972656 11.089844 1.804688 11.554688 C 3.964844 12.765625 4.949219 13.3125 8.144531 15.097656 C 8.898438 15.519531 9.851562 16.050781 10.265625 16.277344 C 10.671875 16.507812 11.46875 16.949219 12.03125 17.261719 C 12.589844 17.574219 13.46875 18.066406 13.984375 18.355469 C 14.496094 18.648438 15.484375 19.195312 16.171875 19.582031 C 17.707031 20.4375 19.113281 21.21875 19.535156 21.457031 C 19.710938 21.554688 19.996094 21.710938 20.164062 21.808594 L 20.480469 21.980469 L 21.074219 21.648438 C 21.402344 21.460938 22.089844 21.078125 22.605469 20.789062 C 23.121094 20.5 24.050781 19.980469 24.675781 19.632812 C 25.292969 19.285156 26.183594 18.789062 26.644531 18.53125 C 27.105469 18.265625 28.039062 17.746094 28.710938 17.371094 C 29.386719 16.992188 30.273438 16.496094 30.679688 16.265625 C 31.089844 16.039062 31.863281 15.601562 32.402344 15.304688 C 32.941406 15 33.761719 14.542969 34.222656 14.285156 C 35.578125 13.519531 36.882812 12.792969 38.175781 12.070312 C 38.839844 11.695312 39.722656 11.203125 40.125 10.976562 L 40.863281 10.5625 L 40.773438 10.507812 C 40.601562 10.410156 37.878906 8.878906 36.09375 7.882812 C 35.828125 7.734375 34.914062 7.222656 34.054688 6.738281 C 32.613281 5.929688 32.195312 5.695312 30.804688 4.914062 C 27.4375 3.03125 27.085938 2.828125 27.105469 2.800781 C 27.113281 2.792969 27.109375 2.789062 27.085938 2.796875 C 27.046875 2.820312 26.890625 2.730469 26.914062 2.695312 C 26.921875 2.683594 26.914062 2.683594 26.894531 2.6875 C 26.882812 2.699219 26.457031 2.476562 25.949219 2.191406 C 25.445312 1.910156 24.523438 1.390625 23.90625 1.039062 C 23.28125 0.695312 22.671875 0.351562 22.546875 0.277344 C 22.421875 0.207031 22.316406 0.152344 22.308594 0.152344 C 22.296875 0.152344 22.289062 1.949219 22.289062 4.144531 L 22.289062 8.132812 L 22.351562 8.171875 C 22.410156 8.207031 22.886719 8.476562 23.601562 8.875 C 23.78125 8.976562 24.136719 9.171875 24.386719 9.3125 C 24.636719 9.453125 25.097656 9.714844 25.417969 9.890625 C 25.738281 10.070312 26.003906 10.226562 26.007812 10.234375 C 26.019531 10.242188 26.039062 10.253906 26.058594 10.257812 C 26.078125 10.261719 26.152344 10.296875 26.222656 10.339844 C 26.292969 10.386719 26.714844 10.621094 27.152344 10.863281 C 29.988281 12.449219 29.808594 12.335938 29.808594 12.585938 C 29.808594 12.753906 29.53125 13.015625 29.351562 13.015625 C 29.328125 13.015625 29.320312 13.023438 29.320312 13.03125 C 29.320312 13.054688 28.515625 13.507812 28.457031 13.519531 C 28.441406 13.519531 28.402344 13.550781 28.371094 13.574219 C 28.347656 13.597656 28.3125 13.613281 28.296875 13.605469 C 28.285156 13.59375 28.269531 13.597656 28.269531 13.613281 C 28.269531 13.625 28.128906 13.714844 27.960938 13.808594 C 27.789062 13.902344 27.40625 14.117188 27.101562 14.285156 C 26.796875 14.453125 26.539062 14.585938 26.527344 14.582031 C 26.515625 14.578125 26.507812 14.585938 26.507812 14.597656 C 26.507812 14.632812 26.296875 14.738281 26.277344 14.71875 C 26.265625 14.710938 26.257812 14.710938 26.257812 14.730469 C 26.257812 14.753906 26.003906 14.90625 25.96875 14.894531 C 25.960938 14.894531 25.929688 14.921875 25.898438 14.953125 C 25.867188 14.980469 25.832031 14.996094 25.820312 14.988281 C 25.804688 14.984375 25.792969 14.988281 25.785156 15 C 25.773438 15.027344 25.167969 15.375 25.121094 15.382812 C 25.101562 15.382812 25.082031 15.394531 25.074219 15.40625 C 25.046875 15.4375 24.757812 15.59375 24.722656 15.597656 C 24.703125 15.597656 24.683594 15.605469 24.683594 15.617188 C 24.683594 15.640625 24.410156 15.789062 24.378906 15.777344 C 24.363281 15.773438 24.359375 15.785156 24.359375 15.804688 C 24.359375 15.8125 24.324219 15.84375 24.273438 15.867188 C 24.230469 15.890625 24.195312 15.902344 24.195312 15.894531 C 24.195312 15.886719 24.164062 15.902344 24.132812 15.933594 C 24.101562 15.960938 24.0625 15.984375 24.046875 15.984375 C 24.039062 15.984375 24.019531 15.984375 24.011719 15.984375 C 24.003906 15.984375 23.972656 16.011719 23.945312 16.042969 C 23.910156 16.070312 23.878906 16.085938 23.859375 16.082031 C 23.84375 16.070312 23.835938 16.074219 23.835938 16.089844 C 23.835938 16.105469 23.796875 16.136719 23.753906 16.15625 C 23.707031 16.183594 23.667969 16.191406 23.667969 16.1875 C 23.667969 16.179688 23.644531 16.195312 23.613281 16.226562 C 23.582031 16.257812 23.546875 16.273438 23.527344 16.265625 C 23.515625 16.257812 23.503906 16.257812 23.503906 16.273438 C 23.503906 16.285156 23.449219 16.328125 23.386719 16.363281 C 23.324219 16.394531 23.078125 16.53125 22.84375 16.660156 C 22.605469 16.792969 22.402344 16.898438 22.382812 16.898438 C 22.363281 16.898438 22.34375 16.910156 22.34375 16.921875 C 22.34375 16.945312 21.898438 17.195312 21.859375 17.195312 C 21.839844 17.195312 21.824219 17.203125 21.824219 17.210938 C 21.824219 17.242188 21.351562 17.492188 21.320312 17.484375 C 21.3125 17.480469 21.296875 17.492188 21.296875 17.503906 C 21.296875 17.53125 21.132812 17.625 21.132812 17.59375 C 21.132812 17.582031 21.125 17.585938 21.113281 17.597656 C 21 17.769531 20.609375 17.875 20.367188 17.808594 C 20.210938 17.769531 19.425781 17.355469 19.425781 17.316406 C 19.425781 17.308594 19.410156 17.300781 19.394531 17.300781 C 19.34375 17.300781 18.761719 16.972656 18.761719 16.949219 C 18.761719 16.9375 18.75 16.929688 18.726562 16.929688 C 18.691406 16.929688 17.691406 16.367188 17.664062 16.335938 C 17.65625 16.328125 17.632812 16.316406 17.613281 16.3125 C 17.546875 16.300781 17.140625 16.058594 17.140625 16.035156 C 17.140625 16.019531 17.125 16.015625 17.113281 16.027344 C 17.097656 16.035156 17.0625 16.019531 17.035156 15.992188 C 17.003906 15.96875 16.964844 15.945312 16.949219 15.941406 C 16.882812 15.921875 16.285156 15.582031 16.285156 15.554688 C 16.285156 15.542969 16.277344 15.539062 16.257812 15.542969 C 16.222656 15.550781 15.757812 15.292969 15.757812 15.261719 C 15.757812 15.246094 15.753906 15.242188 15.746094 15.246094 C 15.71875 15.273438 15.566406 15.195312 15.566406 15.164062 C 15.566406 15.15625 15.554688 15.140625 15.53125 15.140625 C 15.476562 15.140625 14.910156 14.8125 14.910156 14.78125 C 14.910156 14.765625 14.898438 14.761719 14.890625 14.769531 C 14.871094 14.789062 14.714844 14.71875 14.714844 14.6875 C 14.714844 14.675781 14.695312 14.664062 14.675781 14.664062 C 14.625 14.664062 14.382812 14.519531 14.382812 14.488281 C 14.382812 14.472656 14.375 14.46875 14.363281 14.476562 C 14.34375 14.5 14.191406 14.414062 14.191406 14.382812 C 14.191406 14.367188 14.179688 14.367188 14.167969 14.371094 C 14.148438 14.386719 13.835938 14.222656 13.804688 14.183594 C 13.792969 14.171875 13.773438 14.160156 13.753906 14.15625 C 13.683594 14.140625 13.472656 14.015625 13.472656 13.988281 C 13.472656 13.972656 13.464844 13.96875 13.445312 13.976562 C 13.433594 13.984375 13.394531 13.96875 13.367188 13.9375 C 13.335938 13.90625 13.3125 13.890625 13.3125 13.902344 C 13.3125 13.90625 13.273438 13.894531 13.226562 13.871094 C 13.183594 13.847656 13.144531 13.820312 13.144531 13.808594 C 13.144531 13.796875 13.128906 13.785156 13.113281 13.785156 C 13.0625 13.785156 12.621094 13.539062 12.621094 13.515625 C 12.621094 13.503906 12.605469 13.492188 12.585938 13.492188 C 12.523438 13.492188 11.425781 12.871094 11.351562 12.792969 C 11.136719 12.578125 11.230469 12.359375 11.632812 12.132812 C 11.796875 12.039062 11.941406 11.96875 11.960938 11.964844 C 11.980469 11.957031 12.019531 11.9375 12.046875 11.90625 C 12.074219 11.878906 12.113281 11.867188 12.121094 11.875 C 12.140625 11.882812 12.152344 11.878906 12.152344 11.867188 C 12.152344 11.835938 12.40625 11.699219 12.441406 11.703125 C 12.453125 11.703125 12.472656 11.695312 12.476562 11.679688 C 12.503906 11.648438 12.792969 11.480469 12.832031 11.476562 C 12.855469 11.476562 12.867188 11.472656 12.867188 11.460938 C 12.867188 11.4375 13.515625 11.082031 13.542969 11.089844 C 13.554688 11.089844 13.570312 11.085938 13.582031 11.066406 C 13.601562 11.035156 13.996094 10.804688 14.050781 10.792969 C 14.074219 10.789062 14.101562 10.773438 14.109375 10.769531 C 14.128906 10.742188 14.472656 10.546875 15.195312 10.144531 C 15.554688 9.941406 15.878906 9.761719 15.914062 9.742188 C 15.945312 9.71875 15.980469 9.714844 15.992188 9.722656 C 16 9.734375 16.007812 9.726562 16.007812 9.714844 C 16.007812 9.691406 16.0625 9.652344 16.121094 9.621094 C 16.1875 9.59375 16.414062 9.472656 16.625 9.347656 C 16.835938 9.226562 17.195312 9.03125 17.414062 8.910156 C 17.632812 8.785156 17.949219 8.609375 18.113281 8.515625 C 18.273438 8.421875 18.421875 8.347656 18.4375 8.339844 C 18.460938 8.335938 18.480469 8.324219 18.492188 8.3125 C 18.5 8.300781 18.570312 8.257812 18.644531 8.214844 L 18.78125 8.148438 L 18.785156 4.148438 C 18.789062 1.949219 18.785156 0.152344 18.769531 0.152344 C 18.757812 0.15625 18.679688 0.195312 18.589844 0.246094 "/>
<path style=" stroke:none;fill-rule:evenodd;fill:rgb(29.803923%,29.803923%,29.803923%);fill-opacity:1;" d="M 26.589844 2.535156 C 26.589844 2.539062 26.628906 2.5625 26.671875 2.585938 C 26.71875 2.609375 26.757812 2.621094 26.757812 2.617188 C 26.757812 2.605469 26.71875 2.585938 26.671875 2.558594 C 26.628906 2.535156 26.589844 2.523438 26.589844 2.535156 M 26.921875 2.71875 C 26.921875 2.726562 26.957031 2.75 27.003906 2.769531 C 27.046875 2.796875 27.085938 2.808594 27.085938 2.796875 C 27.085938 2.796875 27.046875 2.765625 27.003906 2.746094 C 26.957031 2.726562 26.921875 2.710938 26.921875 2.71875 M 27.511719 3.042969 C 27.527344 3.0625 27.601562 3.105469 27.679688 3.148438 C 27.753906 3.183594 27.804688 3.210938 27.789062 3.191406 C 27.773438 3.179688 27.695312 3.132812 27.625 3.089844 C 27.546875 3.050781 27.496094 3.03125 27.511719 3.042969 M 27.828125 3.21875 C 27.828125 3.226562 27.957031 3.304688 28.109375 3.390625 C 28.265625 3.476562 28.976562 3.875 29.6875 4.273438 C 30.402344 4.671875 31.292969 5.175781 31.671875 5.386719 C 32.050781 5.601562 32.546875 5.878906 32.773438 6.007812 C 33.003906 6.132812 33.847656 6.605469 34.648438 7.054688 C 35.453125 7.507812 36.371094 8.023438 36.691406 8.203125 C 37.007812 8.382812 37.738281 8.792969 38.3125 9.113281 C 38.890625 9.4375 39.703125 9.890625 40.117188 10.125 L 40.875 10.550781 L 40.890625 20.980469 C 40.902344 30.886719 40.90625 31.410156 40.949219 31.417969 C 40.996094 31.425781 41 30.917969 41 20.992188 L 41 10.5625 L 40.742188 10.417969 C 40.417969 10.226562 40.089844 10.042969 38.4375 9.125 C 37.6875 8.710938 36.933594 8.285156 36.757812 8.1875 C 36.582031 8.089844 35.757812 7.628906 34.925781 7.160156 C 34.09375 6.695312 33.25 6.226562 33.050781 6.117188 C 32.851562 6.007812 32.445312 5.78125 32.140625 5.609375 C 31.839844 5.445312 31.449219 5.226562 31.273438 5.128906 C 31.097656 5.03125 30.78125 4.851562 30.570312 4.734375 C 30.253906 4.558594 28.40625 3.53125 27.945312 3.269531 C 27.882812 3.238281 27.828125 3.210938 27.828125 3.21875 M 0 20.992188 L 0 31.425781 L 0.183594 31.328125 C 0.289062 31.273438 0.417969 31.203125 0.464844 31.167969 C 0.523438 31.136719 0.621094 31.082031 0.691406 31.042969 C 0.753906 31.011719 0.925781 30.917969 1.0625 30.839844 C 1.199219 30.761719 1.429688 30.632812 1.585938 30.542969 C 1.738281 30.460938 2.230469 30.179688 2.6875 29.929688 C 3.144531 29.671875 3.953125 29.21875 4.492188 28.914062 C 5.027344 28.613281 5.84375 28.160156 6.296875 27.902344 L 7.125 27.4375 L 7.148438 19.132812 L 7.207031 19.058594 C 7.339844 18.882812 7.566406 18.796875 7.707031 18.867188 C 7.777344 18.902344 8.816406 19.476562 9.339844 19.773438 C 9.46875 19.847656 9.816406 20.039062 10.109375 20.203125 C 10.40625 20.371094 11.269531 20.851562 12.03125 21.277344 C 12.785156 21.699219 13.570312 22.136719 13.777344 22.25 C 13.980469 22.371094 14.304688 22.546875 14.492188 22.65625 C 14.683594 22.761719 15.195312 23.046875 15.636719 23.292969 C 16.09375 23.546875 16.484375 23.78125 16.554688 23.847656 C 16.789062 24.0625 16.765625 23.570312 16.765625 29.148438 C 16.765625 34.757812 16.792969 34.207031 16.542969 34.34375 C 16.324219 34.464844 16.285156 34.449219 15.4375 33.972656 C 14.730469 33.570312 14.121094 33.230469 12.867188 32.527344 C 12.601562 32.378906 12.21875 32.164062 12.015625 32.046875 C 11.59375 31.8125 11.1875 31.585938 10.539062 31.226562 C 10.125 30.992188 9.789062 30.808594 9.171875 30.457031 C 8.84375 30.273438 8.910156 30.265625 8.476562 30.511719 C 7.675781 30.957031 7.46875 31.078125 7.105469 31.273438 C 6.90625 31.390625 6.429688 31.65625 6.066406 31.863281 C 4.46875 32.753906 3.503906 33.296875 2.976562 33.589844 C 2.664062 33.765625 2.355469 33.941406 2.289062 33.976562 C 2.222656 34.015625 2.0625 34.105469 1.9375 34.175781 L 1.714844 34.296875 L 1.78125 34.367188 C 1.820312 34.402344 2.125 34.582031 2.460938 34.773438 C 3.117188 35.140625 4.410156 35.863281 5.222656 36.3125 C 5.496094 36.46875 6.046875 36.773438 6.449219 37 C 7.890625 37.800781 11.03125 39.558594 12.152344 40.191406 C 12.492188 40.382812 13.054688 40.703125 13.402344 40.898438 C 13.753906 41.089844 14.171875 41.324219 14.328125 41.417969 C 14.488281 41.507812 14.933594 41.761719 15.320312 41.976562 C 15.976562 42.34375 16.355469 42.554688 17.140625 43 C 17.3125 43.097656 17.953125 43.460938 18.558594 43.796875 C 19.878906 44.539062 20.144531 44.691406 20.308594 44.789062 C 20.402344 44.84375 20.433594 44.855469 20.441406 44.824219 C 20.449219 44.789062 20.453125 44.789062 20.492188 44.824219 C 20.515625 44.84375 20.535156 44.863281 20.539062 44.859375 C 20.578125 44.773438 20.519531 21.996094 20.480469 21.984375 C 20.425781 21.960938 20.289062 21.886719 18.488281 20.882812 C 17.796875 20.496094 16.871094 19.980469 16.421875 19.734375 C 15.972656 19.484375 14.996094 18.9375 14.242188 18.515625 C 13.496094 18.09375 12.699219 17.652344 12.480469 17.53125 C 12.261719 17.410156 11.265625 16.855469 10.265625 16.296875 C 9.265625 15.734375 7.792969 14.914062 6.996094 14.46875 C 6.203125 14.027344 5.292969 13.519531 4.976562 13.34375 C 4.65625 13.164062 3.710938 12.636719 2.878906 12.167969 C 1.207031 11.234375 0.226562 10.683594 0.0898438 10.605469 L 0 10.554688 L 0 20.992188 "/>
<path style=" stroke:none;fill-rule:evenodd;fill:rgb(1.568628%,1.568628%,1.568628%);fill-opacity:1;" d="M 40.175781 10.96875 C 39.800781 11.175781 38.828125 11.726562 38.011719 12.179688 C 37.191406 12.640625 36.1875 13.199219 35.777344 13.433594 C 35.371094 13.660156 34.566406 14.113281 33.988281 14.433594 C 33.414062 14.757812 32.582031 15.222656 32.140625 15.46875 C 31.699219 15.71875 31.085938 16.0625 30.765625 16.242188 C 30 16.667969 28.527344 17.492188 27.085938 18.300781 C 26.445312 18.664062 25.445312 19.222656 24.867188 19.546875 C 23.984375 20.039062 23.242188 20.457031 21.324219 21.53125 C 21.199219 21.601562 20.960938 21.734375 20.800781 21.824219 C 20.636719 21.914062 20.515625 21.992188 20.527344 22.003906 C 20.546875 22.015625 20.558594 26.292969 20.558594 33.382812 L 20.570312 44.753906 L 20.773438 44.636719 C 20.890625 44.574219 21.304688 44.34375 21.699219 44.125 C 22.089844 43.902344 22.660156 43.589844 22.953125 43.425781 C 23.246094 43.257812 23.503906 43.125 23.523438 43.125 C 23.542969 43.125 23.5625 43.117188 23.5625 43.105469 C 23.5625 43.082031 23.863281 42.910156 23.910156 42.910156 C 23.925781 42.910156 23.945312 42.90625 23.945312 42.894531 C 23.945312 42.871094 24.414062 42.613281 24.445312 42.621094 C 24.457031 42.625 24.46875 42.617188 24.46875 42.605469 C 24.46875 42.589844 24.523438 42.554688 24.585938 42.519531 C 24.648438 42.480469 24.882812 42.347656 25.097656 42.230469 C 25.320312 42.105469 25.515625 42.007812 25.535156 42.007812 C 25.554688 42.007812 25.570312 41.996094 25.570312 41.988281 C 25.570312 41.964844 25.945312 41.75 25.996094 41.742188 C 26.011719 41.738281 26.027344 41.730469 26.039062 41.71875 C 26.0625 41.6875 26.355469 41.53125 26.390625 41.53125 C 26.40625 41.53125 26.421875 41.519531 26.421875 41.507812 C 26.421875 41.484375 26.867188 41.234375 26.914062 41.234375 C 26.929688 41.234375 26.949219 41.226562 26.949219 41.214844 C 26.949219 41.203125 26.984375 41.175781 27.03125 41.148438 C 27.078125 41.128906 27.113281 41.117188 27.113281 41.128906 C 27.113281 41.140625 27.125 41.128906 27.148438 41.109375 C 27.1875 41.054688 28.488281 40.332031 28.535156 40.332031 C 28.558594 40.332031 28.570312 40.324219 28.570312 40.308594 C 28.570312 40.285156 29.015625 40.035156 29.0625 40.035156 C 29.082031 40.035156 29.097656 40.027344 29.097656 40.019531 C 29.097656 39.992188 29.402344 39.824219 29.449219 39.824219 C 29.464844 39.824219 29.484375 39.8125 29.484375 39.804688 C 29.484375 39.796875 29.546875 39.746094 29.625 39.710938 C 29.707031 39.664062 30.011719 39.492188 30.308594 39.328125 C 30.609375 39.160156 30.863281 39.027344 30.882812 39.027344 C 30.898438 39.027344 30.914062 39.015625 30.914062 39.007812 C 30.914062 38.976562 31.164062 38.839844 31.210938 38.839844 C 31.230469 38.839844 31.25 38.832031 31.25 38.824219 C 31.25 38.800781 31.71875 38.535156 31.773438 38.523438 C 31.792969 38.515625 31.824219 38.503906 31.839844 38.484375 C 31.882812 38.445312 33.324219 37.640625 33.363281 37.640625 C 33.378906 37.640625 33.394531 37.632812 33.394531 37.621094 C 33.394531 37.59375 33.550781 37.515625 33.574219 37.535156 C 33.578125 37.542969 33.585938 37.539062 33.585938 37.523438 C 33.585938 37.492188 33.859375 37.339844 33.894531 37.351562 C 33.90625 37.355469 33.917969 37.347656 33.917969 37.335938 C 33.917969 37.308594 34.21875 37.136719 34.269531 37.136719 C 34.289062 37.136719 34.304688 37.128906 34.304688 37.117188 C 34.304688 37.09375 34.609375 36.925781 34.652344 36.925781 C 34.671875 36.925781 34.691406 36.914062 34.691406 36.902344 C 34.691406 36.882812 35.296875 36.546875 35.316406 36.554688 C 35.324219 36.558594 35.339844 36.550781 35.347656 36.539062 C 35.375 36.5 35.988281 36.15625 36.03125 36.152344 C 36.054688 36.152344 36.066406 36.140625 36.066406 36.132812 C 36.066406 36.109375 36.375 35.941406 36.417969 35.9375 C 36.4375 35.9375 36.457031 35.933594 36.457031 35.917969 C 36.457031 35.894531 36.734375 35.746094 36.761719 35.757812 C 36.777344 35.757812 36.785156 35.75 36.785156 35.734375 C 36.785156 35.703125 36.9375 35.625 36.960938 35.648438 C 36.972656 35.65625 36.976562 35.652344 36.976562 35.636719 C 36.976562 35.605469 37.273438 35.433594 37.332031 35.433594 C 37.347656 35.433594 37.363281 35.425781 37.363281 35.414062 C 37.363281 35.390625 37.808594 35.140625 37.851562 35.140625 C 37.871094 35.140625 37.886719 35.132812 37.886719 35.121094 C 37.886719 35.101562 38.144531 34.957031 38.175781 34.960938 C 38.179688 34.960938 38.214844 34.9375 38.246094 34.90625 C 38.277344 34.878906 38.3125 34.859375 38.328125 34.871094 C 38.339844 34.878906 38.355469 34.878906 38.355469 34.863281 C 38.355469 34.828125 38.5625 34.71875 38.582031 34.742188 C 38.59375 34.75 38.601562 34.746094 38.601562 34.730469 C 38.601562 34.71875 38.71875 34.640625 38.863281 34.558594 C 39.003906 34.484375 39.117188 34.410156 39.109375 34.402344 C 39.101562 34.394531 38.9375 34.292969 38.730469 34.179688 C 38.519531 34.066406 38.355469 33.960938 38.355469 33.945312 C 38.355469 33.9375 38.34375 33.929688 38.335938 33.933594 C 38.308594 33.941406 37.269531 33.367188 37.195312 33.3125 C 37.171875 33.289062 37.136719 33.269531 37.125 33.269531 C 37.082031 33.261719 36.769531 33.082031 36.722656 33.039062 C 36.699219 33.023438 36.671875 33 36.65625 33 C 36.617188 32.992188 35.539062 32.390625 35.515625 32.359375 C 35.507812 32.351562 35.492188 32.339844 35.476562 32.335938 C 35.421875 32.328125 34.71875 31.921875 34.71875 31.90625 C 34.71875 31.894531 34.703125 31.886719 34.683594 31.886719 C 34.648438 31.886719 34.21875 31.648438 34.195312 31.613281 C 34.1875 31.605469 34.164062 31.59375 34.140625 31.585938 C 34.121094 31.585938 33.8125 31.414062 33.453125 31.214844 C 33.09375 31.011719 32.730469 30.808594 32.644531 30.761719 C 32.558594 30.714844 32.488281 30.664062 32.488281 30.65625 C 32.488281 30.640625 32.46875 30.632812 32.453125 30.632812 C 32.429688 30.632812 32.328125 30.582031 32.214844 30.519531 L 32.015625 30.40625 L 31.730469 30.5625 C 31.578125 30.644531 31.375 30.761719 31.277344 30.8125 C 31.183594 30.871094 31.089844 30.921875 31.074219 30.921875 C 31.054688 30.925781 31.03125 30.941406 31.023438 30.953125 C 31.015625 30.957031 30.78125 31.097656 30.503906 31.25 C 30.222656 31.410156 29.792969 31.648438 29.550781 31.78125 C 29.308594 31.917969 28.902344 32.148438 28.644531 32.289062 C 28.386719 32.429688 28.160156 32.550781 28.136719 32.550781 C 28.121094 32.550781 28.105469 32.5625 28.105469 32.570312 C 28.105469 32.597656 27.664062 32.839844 27.617188 32.84375 C 27.597656 32.84375 27.582031 32.851562 27.582031 32.859375 C 27.582031 32.886719 27.386719 33 27.339844 33 C 27.324219 33 27.304688 33.011719 27.304688 33.03125 C 27.304688 33.039062 27.292969 33.042969 27.277344 33.03125 C 27.261719 33.027344 27.246094 33.03125 27.246094 33.042969 C 27.246094 33.066406 26.675781 33.398438 26.625 33.402344 C 26.605469 33.402344 26.589844 33.414062 26.589844 33.421875 C 26.589844 33.453125 26.421875 33.53125 26.421875 33.507812 C 26.421875 33.496094 26.410156 33.5 26.40625 33.515625 C 26.378906 33.554688 26.085938 33.71875 26.046875 33.722656 C 26.023438 33.722656 26.007812 33.734375 26.007812 33.738281 C 26.007812 33.761719 25.25 34.191406 25.203125 34.199219 C 25.1875 34.203125 25.15625 34.222656 25.128906 34.238281 C 24.707031 34.589844 24.292969 34.644531 24.164062 34.367188 C 24.101562 34.242188 24.078125 24.3125 24.136719 24.273438 C 24.152344 24.273438 24.15625 24.242188 24.148438 24.226562 C 24.140625 24.207031 24.152344 24.171875 24.175781 24.152344 C 24.203125 24.128906 24.207031 24.101562 24.203125 24.097656 C 24.191406 24.085938 24.203125 24.078125 24.214844 24.078125 C 24.234375 24.078125 24.242188 24.066406 24.234375 24.054688 C 24.1875 23.980469 25.074219 23.378906 25.230469 23.375 C 25.25 23.375 25.265625 23.367188 25.265625 23.359375 C 25.265625 23.351562 25.363281 23.289062 25.484375 23.222656 C 25.601562 23.15625 25.746094 23.074219 25.8125 23.035156 C 25.882812 22.996094 25.945312 22.96875 25.960938 22.976562 C 25.96875 22.980469 25.984375 22.976562 25.984375 22.964844 C 25.984375 22.949219 26.046875 22.902344 26.125 22.863281 C 26.207031 22.816406 26.558594 22.625 26.90625 22.425781 C 27.253906 22.234375 27.558594 22.074219 27.574219 22.074219 C 27.59375 22.074219 27.605469 22.0625 27.605469 22.050781 C 27.605469 22.019531 27.765625 21.949219 27.785156 21.96875 C 27.792969 21.976562 27.804688 21.96875 27.804688 21.953125 C 27.804688 21.917969 27.953125 21.839844 27.976562 21.859375 C 27.988281 21.871094 27.996094 21.867188 27.996094 21.851562 C 27.996094 21.8125 28.238281 21.671875 28.289062 21.671875 C 28.308594 21.671875 28.328125 21.667969 28.328125 21.65625 C 28.328125 21.636719 29.128906 21.179688 29.183594 21.171875 C 29.207031 21.167969 29.230469 21.148438 29.25 21.136719 C 29.289062 21.089844 30.347656 20.503906 30.382812 20.503906 C 30.40625 20.503906 30.417969 20.492188 30.417969 20.484375 C 30.417969 20.464844 30.730469 20.292969 30.769531 20.289062 C 30.78125 20.289062 30.8125 20.265625 30.847656 20.238281 C 30.890625 20.195312 30.910156 20.191406 30.957031 20.195312 C 30.96875 20.195312 30.992188 20.175781 31.011719 20.15625 C 31.035156 20.132812 31.199219 20.035156 31.375 19.9375 C 31.554688 19.839844 31.800781 19.703125 31.921875 19.632812 C 32.042969 19.5625 32.160156 19.496094 32.179688 19.496094 C 32.207031 19.492188 32.230469 19.480469 32.238281 19.46875 C 32.273438 19.429688 32.582031 19.261719 32.601562 19.277344 C 32.613281 19.285156 32.621094 19.28125 32.621094 19.261719 C 32.621094 19.203125 33.265625 18.878906 33.398438 18.875 C 33.554688 18.875 33.683594 18.972656 33.726562 19.125 C 33.738281 19.179688 33.746094 20.910156 33.746094 23.332031 C 33.746094 27.234375 33.75 27.582031 33.8125 27.550781 C 33.820312 27.542969 33.855469 27.558594 33.890625 27.585938 C 33.917969 27.617188 33.949219 27.632812 33.957031 27.621094 C 33.96875 27.613281 33.972656 27.625 33.972656 27.644531 C 33.972656 27.664062 33.980469 27.671875 33.992188 27.664062 C 34 27.65625 34.027344 27.667969 34.054688 27.6875 C 34.078125 27.707031 34.109375 27.722656 34.125 27.722656 C 34.132812 27.71875 34.15625 27.726562 34.164062 27.742188 C 34.171875 27.757812 34.253906 27.8125 34.347656 27.859375 C 34.535156 27.972656 35.644531 28.597656 35.796875 28.675781 C 35.898438 28.734375 37.292969 29.515625 37.886719 29.851562 C 38.550781 30.230469 38.871094 30.40625 38.988281 30.472656 C 39.058594 30.507812 39.375 30.6875 39.691406 30.863281 C 40.660156 31.414062 40.738281 31.453125 40.816406 31.492188 L 40.890625 31.53125 L 40.890625 21.058594 C 40.890625 15.296875 40.882812 10.585938 40.867188 10.585938 C 40.859375 10.589844 40.542969 10.757812 40.175781 10.96875 "/>
<path style=" stroke:none;fill-rule:evenodd;fill:rgb(10.980392%,10.980392%,10.980392%);fill-opacity:1;" d="M 33.347656 18.882812 C 33.371094 18.886719 33.414062 18.886719 33.445312 18.882812 C 33.46875 18.871094 33.453125 18.867188 33.394531 18.867188 C 33.339844 18.867188 33.320312 18.871094 33.347656 18.882812 M 33.136719 18.953125 C 32.980469 19.042969 32.976562 19.066406 33.132812 18.980469 C 33.292969 18.898438 33.300781 18.886719 33.265625 18.886719 C 33.253906 18.890625 33.199219 18.917969 33.136719 18.953125 M 33.554688 18.929688 C 33.589844 18.953125 33.644531 19.011719 33.675781 19.058594 C 33.703125 19.105469 33.726562 19.125 33.726562 19.109375 C 33.726562 19.066406 33.5625 18.886719 33.523438 18.886719 C 33.507812 18.886719 33.519531 18.90625 33.554688 18.929688 M 32.835938 19.113281 C 32.730469 19.171875 32.742188 19.191406 32.847656 19.140625 C 32.890625 19.117188 32.929688 19.09375 32.929688 19.085938 C 32.929688 19.070312 32.925781 19.070312 32.835938 19.113281 M 32.507812 19.300781 C 32.402344 19.351562 32.410156 19.382812 32.515625 19.324219 C 32.558594 19.304688 32.59375 19.28125 32.59375 19.273438 C 32.59375 19.257812 32.59375 19.257812 32.507812 19.300781 M 32.121094 19.515625 C 32.015625 19.566406 32.023438 19.589844 32.128906 19.539062 C 32.171875 19.519531 32.210938 19.492188 32.210938 19.488281 C 32.210938 19.464844 32.210938 19.46875 32.121094 19.515625 M 31.597656 19.808594 C 31.492188 19.863281 31.5 19.882812 31.605469 19.832031 C 31.652344 19.8125 31.691406 19.785156 31.691406 19.777344 C 31.691406 19.761719 31.6875 19.761719 31.597656 19.808594 M 31.40625 19.914062 C 31.300781 19.964844 31.308594 19.992188 31.410156 19.9375 C 31.457031 19.914062 31.492188 19.890625 31.492188 19.882812 C 31.492188 19.867188 31.492188 19.871094 31.40625 19.914062 M 30.550781 20.394531 C 30.449219 20.445312 30.449219 20.46875 30.558594 20.417969 C 30.605469 20.394531 30.640625 20.375 30.640625 20.367188 C 30.640625 20.34375 30.636719 20.34375 30.550781 20.394531 M 29.644531 20.898438 C 29.539062 20.953125 29.546875 20.972656 29.648438 20.925781 C 29.691406 20.902344 29.730469 20.875 29.730469 20.871094 C 29.730469 20.851562 29.730469 20.855469 29.644531 20.898438 M 29.3125 21.082031 C 29.207031 21.140625 29.210938 21.164062 29.320312 21.109375 C 29.363281 21.085938 29.398438 21.0625 29.398438 21.054688 C 29.398438 21.039062 29.394531 21.039062 29.3125 21.082031 M 29.117188 21.191406 C 29.011719 21.25 29.019531 21.269531 29.128906 21.21875 C 29.167969 21.195312 29.207031 21.167969 29.207031 21.164062 C 29.207031 21.144531 29.207031 21.148438 29.117188 21.191406 M 28.925781 21.296875 C 28.820312 21.351562 28.828125 21.371094 28.929688 21.320312 C 28.976562 21.300781 29.011719 21.277344 29.011719 21.269531 C 29.011719 21.253906 29.007812 21.253906 28.925781 21.296875 M 28.402344 21.589844 C 28.296875 21.644531 28.304688 21.667969 28.40625 21.617188 C 28.453125 21.59375 28.492188 21.570312 28.492188 21.5625 C 28.492188 21.542969 28.488281 21.546875 28.402344 21.589844 M 28.136719 21.738281 C 28.058594 21.78125 27.996094 21.824219 27.996094 21.835938 C 27.996094 21.847656 28.238281 21.714844 28.285156 21.675781 C 28.328125 21.636719 28.289062 21.65625 28.136719 21.738281 M 27.878906 21.882812 C 27.773438 21.9375 27.78125 21.957031 27.882812 21.910156 C 27.929688 21.882812 27.96875 21.863281 27.96875 21.855469 C 27.96875 21.839844 27.964844 21.839844 27.878906 21.882812 M 27.6875 21.988281 C 27.582031 22.046875 27.589844 22.066406 27.6875 22.019531 C 27.734375 21.992188 27.773438 21.96875 27.773438 21.957031 C 27.773438 21.945312 27.769531 21.945312 27.6875 21.988281 M 20.535156 33.382812 C 20.53125 39.652344 20.539062 44.78125 20.550781 44.78125 C 20.558594 44.78125 20.597656 44.765625 20.625 44.742188 C 20.679688 44.703125 20.679688 44.703125 20.617188 44.730469 L 20.554688 44.757812 L 20.542969 21.988281 L 20.535156 33.382812 M 27.355469 22.175781 C 27.246094 22.230469 27.257812 22.25 27.363281 22.203125 C 27.40625 22.179688 27.445312 22.15625 27.445312 22.148438 C 27.445312 22.132812 27.441406 22.132812 27.355469 22.175781 M 26.964844 22.390625 C 26.863281 22.445312 26.871094 22.464844 26.976562 22.414062 C 27.019531 22.390625 27.054688 22.371094 27.054688 22.359375 C 27.054688 22.34375 27.050781 22.34375 26.964844 22.390625 M 26.773438 22.496094 C 26.671875 22.550781 26.679688 22.574219 26.78125 22.515625 C 26.828125 22.496094 26.863281 22.476562 26.863281 22.46875 C 26.863281 22.449219 26.859375 22.449219 26.773438 22.496094 M 26.511719 22.644531 C 26.433594 22.691406 26.367188 22.730469 26.367188 22.738281 C 26.367188 22.753906 26.613281 22.625 26.65625 22.585938 C 26.703125 22.546875 26.664062 22.558594 26.511719 22.644531 M 26.085938 22.882812 C 26.027344 22.910156 25.984375 22.9375 25.984375 22.949219 C 25.984375 22.953125 26.03125 22.9375 26.089844 22.90625 C 26.152344 22.875 26.207031 22.847656 26.207031 22.835938 C 26.207031 22.824219 26.207031 22.824219 26.085938 22.882812 M 25.824219 23.027344 C 25.761719 23.066406 25.707031 23.101562 25.707031 23.109375 C 25.707031 23.125 25.894531 23.023438 25.941406 22.980469 C 25.988281 22.941406 25.941406 22.957031 25.824219 23.027344 M 25.566406 23.175781 C 25.507812 23.203125 25.460938 23.234375 25.460938 23.242188 C 25.460938 23.25 25.511719 23.226562 25.570312 23.199219 C 25.632812 23.167969 25.679688 23.140625 25.679688 23.128906 C 25.679688 23.117188 25.679688 23.117188 25.566406 23.175781 M 24.382812 23.863281 L 24.261719 23.976562 L 24.394531 23.875 C 24.460938 23.820312 24.523438 23.773438 24.523438 23.765625 C 24.523438 23.746094 24.492188 23.769531 24.382812 23.863281 M 31.949219 30.425781 C 31.894531 30.464844 31.894531 30.464844 31.953125 30.4375 C 32.011719 30.414062 32.046875 30.425781 32.171875 30.492188 C 32.25 30.539062 32.320312 30.570312 32.320312 30.566406 C 32.320312 30.546875 32.035156 30.386719 32.011719 30.386719 C 32.007812 30.386719 31.976562 30.402344 31.949219 30.425781 M 31.730469 30.53125 C 31.632812 30.589844 31.636719 30.609375 31.742188 30.558594 C 31.789062 30.535156 31.824219 30.511719 31.824219 30.503906 C 31.824219 30.488281 31.824219 30.488281 31.730469 30.53125 M 31.539062 30.640625 C 31.441406 30.691406 31.445312 30.714844 31.546875 30.664062 C 31.597656 30.640625 31.632812 30.617188 31.632812 30.609375 C 31.632812 30.59375 31.628906 30.597656 31.539062 30.640625 M 32.496094 30.671875 C 32.515625 30.6875 32.601562 30.742188 32.691406 30.785156 C 32.785156 30.835938 32.847656 30.859375 32.828125 30.847656 C 32.8125 30.832031 32.730469 30.78125 32.636719 30.730469 C 32.546875 30.683594 32.488281 30.65625 32.496094 30.671875 M 33.007812 30.953125 C 33.007812 30.960938 33.046875 30.988281 33.09375 31.011719 C 33.132812 31.035156 33.171875 31.046875 33.171875 31.039062 C 33.171875 31.03125 33.132812 31.007812 33.09375 30.984375 C 33.046875 30.960938 33.007812 30.953125 33.007812 30.953125 M 30.882812 31.011719 C 30.777344 31.066406 30.785156 31.089844 30.890625 31.039062 C 30.929688 31.015625 30.96875 30.992188 30.96875 30.984375 C 30.96875 30.964844 30.96875 30.96875 30.882812 31.011719 M 30.617188 31.160156 C 30.539062 31.203125 30.476562 31.246094 30.476562 31.253906 C 30.476562 31.273438 30.722656 31.136719 30.765625 31.097656 C 30.808594 31.0625 30.765625 31.078125 30.617188 31.160156 M 33.476562 31.222656 C 33.476562 31.230469 33.515625 31.253906 33.558594 31.273438 C 33.609375 31.300781 33.644531 31.308594 33.644531 31.304688 C 33.644531 31.300781 33.609375 31.273438 33.558594 31.25 C 33.515625 31.226562 33.476562 31.214844 33.476562 31.222656 M 30.355469 31.304688 C 30.25 31.363281 30.257812 31.382812 30.367188 31.332031 C 30.410156 31.304688 30.445312 31.28125 30.445312 31.273438 C 30.445312 31.257812 30.445312 31.261719 30.355469 31.304688 M 33.671875 31.332031 C 33.671875 31.335938 33.710938 31.363281 33.75 31.382812 C 33.800781 31.40625 33.835938 31.417969 33.835938 31.414062 C 33.835938 31.40625 33.800781 31.378906 33.75 31.359375 C 33.710938 31.335938 33.671875 31.320312 33.671875 31.332031 M 29.902344 31.558594 C 29.824219 31.601562 29.757812 31.648438 29.757812 31.65625 C 29.757812 31.667969 30.003906 31.539062 30.046875 31.5 C 30.09375 31.457031 30.050781 31.480469 29.902344 31.558594 M 34.003906 31.515625 C 34.003906 31.519531 34.035156 31.546875 34.085938 31.566406 C 34.132812 31.59375 34.167969 31.605469 34.167969 31.59375 C 34.167969 31.589844 34.132812 31.566406 34.085938 31.542969 C 34.035156 31.519531 34.003906 31.511719 34.003906 31.515625 M 29.46875 31.800781 C 29.328125 31.875 29.207031 31.945312 29.195312 31.964844 C 29.175781 31.976562 29.242188 31.949219 29.328125 31.902344 C 29.613281 31.75 29.730469 31.6875 29.730469 31.671875 C 29.730469 31.65625 29.730469 31.65625 29.46875 31.800781 M 29.035156 32.046875 C 28.902344 32.121094 28.867188 32.160156 28.96875 32.109375 C 29.058594 32.066406 29.171875 31.984375 29.152344 31.984375 C 29.144531 31.984375 29.089844 32.007812 29.035156 32.046875 M 34.855469 31.996094 C 34.855469 32.003906 34.894531 32.027344 34.933594 32.046875 C 34.984375 32.070312 35.019531 32.082031 35.019531 32.078125 C 35.019531 32.070312 34.984375 32.046875 34.933594 32.023438 C 34.894531 32 34.855469 31.988281 34.855469 31.996094 M 28.730469 32.214844 C 28.628906 32.265625 28.636719 32.289062 28.738281 32.234375 C 28.78125 32.214844 28.820312 32.1875 28.820312 32.183594 C 28.820312 32.164062 28.816406 32.164062 28.730469 32.214844 M 35.183594 32.183594 C 35.183594 32.1875 35.222656 32.214844 35.269531 32.234375 C 35.3125 32.257812 35.351562 32.269531 35.351562 32.261719 C 35.351562 32.257812 35.3125 32.230469 35.269531 32.210938 C 35.222656 32.183594 35.183594 32.175781 35.183594 32.183594 M 28.402344 32.398438 C 28.296875 32.449219 28.304688 32.472656 28.40625 32.421875 C 28.453125 32.398438 28.492188 32.375 28.492188 32.367188 C 28.492188 32.351562 28.488281 32.351562 28.402344 32.398438 M 35.515625 32.363281 C 35.515625 32.375 35.554688 32.398438 35.601562 32.421875 C 35.644531 32.445312 35.683594 32.457031 35.683594 32.449219 C 35.683594 32.441406 35.644531 32.417969 35.601562 32.394531 C 35.554688 32.371094 35.515625 32.359375 35.515625 32.363281 M 28.207031 32.503906 C 28.105469 32.558594 28.109375 32.578125 28.214844 32.53125 C 28.261719 32.503906 28.296875 32.480469 28.296875 32.472656 C 28.296875 32.457031 28.292969 32.457031 28.207031 32.503906 M 35.710938 32.472656 C 35.710938 32.480469 35.746094 32.503906 35.792969 32.53125 C 35.835938 32.550781 35.875 32.566406 35.875 32.558594 C 35.875 32.546875 35.835938 32.523438 35.792969 32.5 C 35.746094 32.476562 35.710938 32.46875 35.710938 32.472656 M 27.878906 32.6875 C 27.773438 32.742188 27.78125 32.769531 27.882812 32.710938 C 27.929688 32.691406 27.96875 32.667969 27.96875 32.660156 C 27.96875 32.640625 27.964844 32.644531 27.878906 32.6875 M 36.039062 32.660156 C 36.039062 32.667969 36.078125 32.691406 36.121094 32.710938 C 36.171875 32.738281 36.207031 32.75 36.207031 32.742188 C 36.207031 32.738281 36.171875 32.710938 36.121094 32.6875 C 36.078125 32.664062 36.039062 32.648438 36.039062 32.660156 M 36.507812 32.921875 C 36.507812 32.933594 36.542969 32.960938 36.59375 32.980469 C 36.636719 33 36.671875 33.015625 36.671875 33.007812 C 36.671875 33 36.636719 32.976562 36.59375 32.953125 C 36.542969 32.929688 36.507812 32.917969 36.507812 32.921875 M 27.164062 33.089844 C 27.058594 33.144531 27.0625 33.167969 27.167969 33.113281 C 27.210938 33.09375 27.246094 33.0625 27.246094 33.0625 C 27.246094 33.042969 27.246094 33.042969 27.164062 33.089844 M 36.839844 33.113281 C 36.839844 33.121094 36.878906 33.144531 36.921875 33.167969 C 36.96875 33.191406 37.007812 33.203125 37.007812 33.195312 C 37.007812 33.1875 36.96875 33.164062 36.921875 33.140625 C 36.878906 33.121094 36.839844 33.105469 36.839844 33.113281 M 37.171875 33.296875 C 37.171875 33.308594 37.21875 33.335938 37.28125 33.367188 C 37.335938 33.394531 37.390625 33.414062 37.390625 33.410156 C 37.390625 33.402344 37.335938 33.371094 37.28125 33.339844 C 37.21875 33.3125 37.171875 33.292969 37.171875 33.296875 M 26.5 33.460938 C 26.398438 33.515625 26.40625 33.539062 26.507812 33.484375 C 26.550781 33.464844 26.589844 33.441406 26.589844 33.433594 C 26.589844 33.414062 26.585938 33.414062 26.5 33.460938 M 37.417969 33.429688 C 37.417969 33.441406 37.457031 33.464844 37.496094 33.484375 C 37.546875 33.507812 37.582031 33.523438 37.582031 33.515625 C 37.582031 33.507812 37.546875 33.484375 37.496094 33.460938 C 37.457031 33.4375 37.417969 33.421875 37.417969 33.429688 M 26.25 33.59375 C 26.148438 33.648438 26.15625 33.671875 26.257812 33.621094 C 26.304688 33.59375 26.34375 33.570312 26.34375 33.5625 C 26.34375 33.550781 26.339844 33.550781 26.25 33.59375 M 37.746094 33.621094 C 37.746094 33.625 37.785156 33.648438 37.832031 33.671875 C 37.875 33.695312 37.914062 33.703125 37.914062 33.699219 C 37.914062 33.695312 37.875 33.667969 37.832031 33.648438 C 37.785156 33.621094 37.746094 33.609375 37.746094 33.621094 M 38.078125 33.804688 C 38.078125 33.8125 38.117188 33.835938 38.164062 33.859375 C 38.207031 33.878906 38.246094 33.894531 38.246094 33.886719 C 38.246094 33.878906 38.207031 33.851562 38.164062 33.832031 C 38.117188 33.808594 38.078125 33.796875 38.078125 33.804688 M 25.714844 33.902344 C 25.636719 33.941406 25.570312 33.984375 25.570312 33.996094 C 25.570312 34.007812 25.808594 33.878906 25.859375 33.839844 C 25.90625 33.800781 25.863281 33.820312 25.714844 33.902344 M 38.367188 33.972656 C 38.382812 33.984375 38.457031 34.027344 38.535156 34.070312 C 38.613281 34.109375 38.644531 34.117188 38.617188 34.097656 C 38.554688 34.046875 38.324219 33.933594 38.367188 33.972656 M 25.398438 34.074219 C 25.292969 34.125 25.300781 34.148438 25.40625 34.097656 C 25.445312 34.078125 25.484375 34.050781 25.484375 34.046875 C 25.484375 34.027344 25.484375 34.027344 25.398438 34.074219 M 38.683594 34.148438 C 38.683594 34.15625 38.722656 34.183594 38.769531 34.203125 C 38.816406 34.226562 38.851562 34.238281 38.851562 34.230469 C 38.851562 34.226562 38.816406 34.199219 38.769531 34.179688 C 38.722656 34.15625 38.683594 34.144531 38.683594 34.148438 M 25.066406 34.261719 C 24.964844 34.316406 24.96875 34.335938 25.074219 34.285156 C 25.121094 34.261719 25.160156 34.234375 25.160156 34.230469 C 25.160156 34.214844 25.15625 34.214844 25.066406 34.261719 M 38.875 34.257812 C 38.875 34.261719 38.914062 34.289062 38.960938 34.3125 C 39.003906 34.332031 39.042969 34.347656 39.042969 34.339844 C 39.042969 34.328125 39.003906 34.308594 38.960938 34.285156 C 38.914062 34.261719 38.875 34.25 38.875 34.257812 M 24.875 34.367188 C 24.769531 34.421875 24.777344 34.441406 24.882812 34.390625 C 24.925781 34.367188 24.964844 34.34375 24.964844 34.335938 C 24.964844 34.324219 24.964844 34.324219 24.875 34.367188 M 24.1875 34.425781 C 24.226562 34.496094 24.351562 34.578125 24.375 34.554688 C 24.386719 34.542969 24.378906 34.539062 24.359375 34.539062 C 24.339844 34.539062 24.285156 34.5 24.242188 34.449219 C 24.179688 34.390625 24.164062 34.378906 24.1875 34.425781 M 24.675781 34.484375 C 24.628906 34.511719 24.605469 34.539062 24.617188 34.539062 C 24.648438 34.539062 24.800781 34.4375 24.769531 34.433594 C 24.765625 34.433594 24.722656 34.457031 24.675781 34.484375 M 38.871094 34.550781 C 38.769531 34.609375 38.773438 34.628906 38.875 34.578125 C 38.925781 34.554688 38.960938 34.53125 38.960938 34.523438 C 38.960938 34.507812 38.957031 34.507812 38.871094 34.550781 M 38.679688 34.660156 C 38.578125 34.714844 38.578125 34.734375 38.683594 34.679688 C 38.734375 34.660156 38.769531 34.636719 38.769531 34.628906 C 38.769531 34.613281 38.765625 34.613281 38.679688 34.660156 M 38.488281 34.765625 C 38.382812 34.820312 38.386719 34.84375 38.492188 34.789062 C 38.539062 34.765625 38.578125 34.742188 38.578125 34.734375 C 38.578125 34.71875 38.574219 34.71875 38.488281 34.765625 M 37.960938 35.058594 C 37.855469 35.109375 37.867188 35.136719 37.972656 35.082031 C 38.015625 35.058594 38.054688 35.035156 38.054688 35.027344 C 38.054688 35.011719 38.050781 35.011719 37.960938 35.058594 M 37.769531 35.167969 C 37.664062 35.21875 37.671875 35.242188 37.777344 35.1875 C 37.820312 35.167969 37.855469 35.140625 37.855469 35.140625 C 37.855469 35.117188 37.855469 35.117188 37.769531 35.167969 M 37.4375 35.351562 C 37.335938 35.40625 37.339844 35.425781 37.445312 35.378906 C 37.492188 35.351562 37.527344 35.328125 37.527344 35.320312 C 37.527344 35.304688 37.527344 35.308594 37.4375 35.351562 M 37.164062 35.503906 C 36.949219 35.625 36.921875 35.664062 37.128906 35.554688 C 37.277344 35.46875 37.363281 35.414062 37.335938 35.417969 C 37.328125 35.417969 37.25 35.457031 37.164062 35.503906 M 36.855469 35.667969 C 36.757812 35.726562 36.761719 35.746094 36.867188 35.699219 C 36.914062 35.671875 36.949219 35.648438 36.949219 35.636719 C 36.949219 35.625 36.949219 35.625 36.855469 35.667969 M 36.335938 35.960938 C 36.234375 36.019531 36.242188 36.039062 36.339844 35.988281 C 36.386719 35.964844 36.425781 35.941406 36.425781 35.933594 C 36.425781 35.914062 36.421875 35.917969 36.335938 35.960938 M 36.144531 36.070312 C 36.039062 36.125 36.050781 36.144531 36.148438 36.09375 C 36.195312 36.074219 36.234375 36.050781 36.234375 36.039062 C 36.234375 36.019531 36.230469 36.023438 36.144531 36.070312 M 35.816406 36.257812 C 35.710938 36.308594 35.714844 36.335938 35.820312 36.28125 C 35.863281 36.257812 35.902344 36.230469 35.902344 36.226562 C 35.902344 36.210938 35.898438 36.210938 35.816406 36.257812 M 35.617188 36.363281 C 35.515625 36.417969 35.523438 36.4375 35.628906 36.386719 C 35.671875 36.367188 35.710938 36.339844 35.710938 36.335938 C 35.710938 36.3125 35.707031 36.316406 35.617188 36.363281 M 34.960938 36.734375 C 34.855469 36.789062 34.863281 36.8125 34.964844 36.757812 C 35.011719 36.738281 35.050781 36.714844 35.050781 36.707031 C 35.050781 36.6875 35.046875 36.691406 34.960938 36.734375 M 34.769531 36.839844 C 34.664062 36.898438 34.671875 36.917969 34.773438 36.867188 C 34.816406 36.839844 34.855469 36.820312 34.855469 36.8125 C 34.855469 36.792969 34.855469 36.796875 34.769531 36.839844 M 34.574219 36.949219 C 34.46875 37 34.476562 37.023438 34.578125 36.972656 C 34.625 36.949219 34.664062 36.929688 34.664062 36.917969 C 34.664062 36.898438 34.660156 36.898438 34.574219 36.949219 M 34.378906 37.054688 C 34.277344 37.109375 34.285156 37.132812 34.386719 37.078125 C 34.433594 37.058594 34.46875 37.035156 34.46875 37.023438 C 34.46875 37.007812 34.464844 37.007812 34.378906 37.054688 M 34.1875 37.164062 C 34.085938 37.214844 34.09375 37.238281 34.195312 37.1875 C 34.238281 37.164062 34.277344 37.136719 34.277344 37.132812 C 34.277344 37.113281 34.273438 37.113281 34.1875 37.164062 M 33.996094 37.269531 C 33.894531 37.320312 33.898438 37.34375 34.003906 37.289062 C 34.046875 37.269531 34.085938 37.25 34.085938 37.238281 C 34.085938 37.21875 34.082031 37.21875 33.996094 37.269531 M 33.664062 37.457031 C 33.558594 37.507812 33.566406 37.53125 33.671875 37.480469 C 33.714844 37.457031 33.75 37.429688 33.75 37.425781 C 33.75 37.40625 33.75 37.410156 33.664062 37.457031 M 33.46875 37.5625 C 33.367188 37.613281 33.371094 37.632812 33.476562 37.585938 C 33.523438 37.5625 33.558594 37.539062 33.558594 37.53125 C 33.558594 37.515625 33.554688 37.515625 33.46875 37.5625 M 33.210938 37.707031 C 33.132812 37.75 33.066406 37.796875 33.066406 37.804688 C 33.066406 37.816406 33.308594 37.6875 33.351562 37.648438 C 33.398438 37.605469 33.359375 37.625 33.210938 37.707031 M 32.945312 37.851562 C 32.847656 37.90625 32.851562 37.925781 32.953125 37.878906 C 33 37.855469 33.039062 37.832031 33.039062 37.824219 C 33.039062 37.808594 33.035156 37.808594 32.945312 37.851562 M 32.6875 38 C 32.605469 38.042969 32.539062 38.089844 32.539062 38.09375 C 32.539062 38.109375 32.785156 37.980469 32.828125 37.941406 C 32.878906 37.898438 32.832031 37.917969 32.6875 38 M 32.425781 38.144531 C 32.320312 38.199219 32.332031 38.222656 32.429688 38.167969 C 32.476562 38.148438 32.515625 38.125 32.515625 38.117188 C 32.515625 38.097656 32.511719 38.097656 32.425781 38.144531 M 32.230469 38.25 C 32.128906 38.304688 32.132812 38.328125 32.238281 38.273438 C 32.285156 38.253906 32.320312 38.230469 32.320312 38.222656 C 32.320312 38.207031 32.316406 38.207031 32.230469 38.25 M 31.898438 38.441406 C 31.796875 38.492188 31.804688 38.515625 31.90625 38.464844 C 31.953125 38.441406 31.988281 38.417969 31.988281 38.40625 C 31.988281 38.394531 31.984375 38.394531 31.898438 38.441406 M 31.707031 38.542969 C 31.605469 38.597656 31.609375 38.621094 31.714844 38.570312 C 31.761719 38.546875 31.796875 38.519531 31.796875 38.515625 C 31.796875 38.5 31.792969 38.5 31.707031 38.542969 M 31.515625 38.65625 C 31.410156 38.703125 31.414062 38.726562 31.523438 38.675781 C 31.570312 38.65625 31.605469 38.625 31.605469 38.621094 C 31.605469 38.605469 31.601562 38.605469 31.515625 38.65625 M 31.320312 38.757812 C 31.214844 38.8125 31.226562 38.832031 31.332031 38.78125 C 31.375 38.757812 31.410156 38.734375 31.410156 38.726562 C 31.410156 38.714844 31.410156 38.714844 31.320312 38.757812 M 31.058594 38.902344 C 30.980469 38.949219 30.914062 38.992188 30.914062 39.003906 C 30.914062 39.011719 31.160156 38.882812 31.207031 38.84375 C 31.25 38.800781 31.210938 38.824219 31.058594 38.902344 M 30.371094 39.289062 C 30.277344 39.34375 30.199219 39.390625 30.199219 39.394531 C 30.199219 39.414062 30.5 39.253906 30.542969 39.21875 C 30.589844 39.179688 30.542969 39.195312 30.371094 39.289062 M 30.082031 39.449219 C 29.976562 39.503906 29.984375 39.527344 30.089844 39.472656 C 30.132812 39.453125 30.167969 39.429688 30.167969 39.421875 C 30.167969 39.402344 30.167969 39.402344 30.082031 39.449219 M 29.890625 39.558594 C 29.785156 39.609375 29.792969 39.632812 29.894531 39.582031 C 29.941406 39.558594 29.976562 39.535156 29.976562 39.53125 C 29.976562 39.507812 29.972656 39.507812 29.890625 39.558594 M 29.558594 39.742188 C 29.453125 39.796875 29.460938 39.816406 29.566406 39.769531 C 29.609375 39.742188 29.648438 39.71875 29.648438 39.710938 C 29.648438 39.695312 29.648438 39.699219 29.558594 39.742188 M 29.367188 39.851562 C 29.261719 39.902344 29.269531 39.921875 29.371094 39.875 C 29.417969 39.851562 29.453125 39.828125 29.453125 39.820312 C 29.453125 39.800781 29.453125 39.804688 29.367188 39.851562 M 29.167969 39.953125 C 29.070312 40.007812 29.074219 40.03125 29.179688 39.980469 C 29.226562 39.957031 29.261719 39.933594 29.261719 39.925781 C 29.261719 39.910156 29.261719 39.910156 29.167969 39.953125 M 28.976562 40.0625 C 28.878906 40.117188 28.882812 40.136719 28.984375 40.089844 C 29.035156 40.0625 29.070312 40.039062 29.070312 40.03125 C 29.070312 40.015625 29.066406 40.015625 28.976562 40.0625 M 28.71875 40.207031 C 28.640625 40.253906 28.570312 40.300781 28.570312 40.304688 C 28.570312 40.320312 28.816406 40.1875 28.859375 40.152344 C 28.90625 40.109375 28.867188 40.125 28.71875 40.207031 M 28.457031 40.355469 C 28.351562 40.410156 28.363281 40.433594 28.460938 40.378906 C 28.507812 40.355469 28.546875 40.332031 28.546875 40.328125 C 28.546875 40.304688 28.542969 40.308594 28.457031 40.355469 M 28.265625 40.460938 C 28.164062 40.515625 28.167969 40.535156 28.269531 40.484375 C 28.316406 40.460938 28.351562 40.441406 28.351562 40.433594 C 28.351562 40.414062 28.351562 40.414062 28.265625 40.460938 M 28.003906 40.609375 C 27.921875 40.652344 27.855469 40.695312 27.855469 40.703125 C 27.855469 40.71875 28.101562 40.585938 28.144531 40.550781 C 28.191406 40.507812 28.148438 40.523438 28.003906 40.609375 M 27.738281 40.753906 C 27.636719 40.804688 27.644531 40.832031 27.746094 40.777344 C 27.789062 40.757812 27.828125 40.730469 27.828125 40.726562 C 27.828125 40.707031 27.824219 40.707031 27.738281 40.753906 M 27.546875 40.859375 C 27.445312 40.910156 27.449219 40.9375 27.554688 40.882812 C 27.597656 40.863281 27.636719 40.835938 27.636719 40.832031 C 27.636719 40.8125 27.632812 40.816406 27.546875 40.859375 M 27.214844 41.046875 C 27.113281 41.101562 27.121094 41.121094 27.222656 41.070312 C 27.269531 41.046875 27.304688 41.023438 27.304688 41.015625 C 27.304688 41.003906 27.304688 41.003906 27.214844 41.046875 M 27.023438 41.148438 C 26.921875 41.207031 26.925781 41.230469 27.03125 41.179688 C 27.078125 41.152344 27.113281 41.128906 27.113281 41.121094 C 27.113281 41.109375 27.109375 41.109375 27.023438 41.148438 M 26.765625 41.296875 C 26.683594 41.347656 26.617188 41.386719 26.617188 41.398438 C 26.617188 41.410156 26.859375 41.277344 26.90625 41.238281 C 26.953125 41.199219 26.910156 41.21875 26.765625 41.296875 M 26.5 41.445312 C 26.398438 41.5 26.40625 41.523438 26.507812 41.46875 C 26.550781 41.445312 26.589844 41.421875 26.589844 41.414062 C 26.589844 41.398438 26.585938 41.398438 26.5 41.445312 M 26.167969 41.632812 C 26.066406 41.683594 26.074219 41.707031 26.175781 41.65625 C 26.21875 41.636719 26.257812 41.609375 26.257812 41.605469 C 26.257812 41.585938 26.253906 41.585938 26.167969 41.632812 M 25.714844 41.886719 C 25.636719 41.929688 25.570312 41.972656 25.570312 41.980469 C 25.570312 41.996094 25.8125 41.863281 25.859375 41.824219 C 25.902344 41.785156 25.863281 41.804688 25.714844 41.886719 M 25.449219 42.03125 C 25.351562 42.085938 25.355469 42.109375 25.460938 42.058594 C 25.503906 42.03125 25.542969 42.007812 25.542969 42 C 25.542969 41.988281 25.539062 41.988281 25.449219 42.03125 M 25.230469 42.152344 C 25.175781 42.179688 25.125 42.207031 25.125 42.214844 C 25.125 42.226562 25.179688 42.203125 25.242188 42.171875 C 25.300781 42.144531 25.351562 42.113281 25.351562 42.109375 C 25.351562 42.089844 25.351562 42.089844 25.230469 42.152344 M 24.875 42.347656 C 24.769531 42.40625 24.777344 42.425781 24.882812 42.378906 C 24.925781 42.351562 24.964844 42.328125 24.964844 42.320312 C 24.964844 42.304688 24.964844 42.304688 24.875 42.347656 M 24.546875 42.535156 C 24.441406 42.59375 24.445312 42.613281 24.550781 42.558594 C 24.597656 42.539062 24.632812 42.515625 24.632812 42.507812 C 24.632812 42.492188 24.628906 42.492188 24.546875 42.535156 M 24.210938 42.726562 C 24.109375 42.777344 24.117188 42.800781 24.21875 42.746094 C 24.265625 42.726562 24.300781 42.699219 24.300781 42.695312 C 24.300781 42.675781 24.296875 42.675781 24.210938 42.726562 M 24.019531 42.828125 C 23.917969 42.882812 23.921875 42.90625 24.027344 42.855469 C 24.074219 42.832031 24.109375 42.808594 24.109375 42.800781 C 24.109375 42.785156 24.105469 42.785156 24.019531 42.828125 M 23.828125 42.9375 C 23.722656 42.992188 23.726562 43.015625 23.835938 42.960938 C 23.882812 42.9375 23.917969 42.910156 23.917969 42.90625 C 23.917969 42.890625 23.914062 42.890625 23.828125 42.9375 M 23.632812 43.046875 C 23.527344 43.097656 23.539062 43.117188 23.644531 43.066406 C 23.6875 43.046875 23.722656 43.019531 23.722656 43.015625 C 23.722656 42.996094 23.722656 42.996094 23.632812 43.046875 M 23.441406 43.148438 C 23.335938 43.203125 23.34375 43.226562 23.445312 43.171875 C 23.496094 43.152344 23.527344 43.125 23.527344 43.117188 C 23.527344 43.105469 23.523438 43.105469 23.441406 43.148438 M 23.113281 43.335938 C 23.007812 43.390625 23.011719 43.410156 23.117188 43.363281 C 23.164062 43.335938 23.203125 43.316406 23.203125 43.304688 C 23.203125 43.289062 23.199219 43.289062 23.113281 43.335938 M 22.847656 43.484375 C 22.765625 43.527344 22.703125 43.574219 22.703125 43.578125 C 22.703125 43.59375 22.949219 43.464844 22.992188 43.421875 C 23.042969 43.382812 22.996094 43.398438 22.847656 43.484375 M 22.585938 43.628906 C 22.480469 43.679688 22.492188 43.703125 22.597656 43.652344 C 22.640625 43.632812 22.679688 43.609375 22.679688 43.597656 C 22.679688 43.578125 22.675781 43.582031 22.585938 43.628906 M 22.273438 43.800781 C 22.191406 43.847656 22.121094 43.890625 22.121094 43.898438 C 22.121094 43.914062 22.371094 43.78125 22.414062 43.742188 C 22.460938 43.699219 22.417969 43.71875 22.273438 43.800781 M 22.007812 43.949219 C 21.90625 44 21.914062 44.023438 22.015625 43.972656 C 22.058594 43.949219 22.097656 43.929688 22.097656 43.917969 C 22.097656 43.898438 22.09375 43.898438 22.007812 43.949219 M 21.746094 44.097656 C 21.667969 44.140625 21.601562 44.183594 21.601562 44.191406 C 21.601562 44.207031 21.847656 44.074219 21.890625 44.035156 C 21.9375 43.992188 21.894531 44.011719 21.746094 44.097656 M 21.347656 44.316406 C 21.242188 44.375 21.25 44.398438 21.355469 44.34375 C 21.402344 44.320312 21.441406 44.296875 21.441406 44.289062 C 21.441406 44.277344 21.4375 44.277344 21.347656 44.316406 M 21.15625 44.425781 C 21.050781 44.480469 21.058594 44.503906 21.160156 44.453125 C 21.207031 44.425781 21.242188 44.402344 21.242188 44.398438 C 21.242188 44.382812 21.242188 44.382812 21.15625 44.425781 M 20.867188 44.585938 C 20.769531 44.636719 20.691406 44.6875 20.691406 44.695312 C 20.691406 44.710938 20.996094 44.550781 21.035156 44.515625 C 21.082031 44.472656 21.039062 44.492188 20.867188 44.585938 "/>
<path style=" stroke:none;fill-rule:evenodd;fill:rgb(39.215687%,39.215687%,39.215687%);fill-opacity:1;" d="M 18.71875 0.152344 C 18.714844 0.164062 18.722656 0.167969 18.75 0.160156 C 18.808594 0.140625 18.816406 8.101562 18.757812 8.160156 C 18.726562 8.183594 18.730469 8.1875 18.769531 8.171875 C 18.839844 8.148438 18.847656 0.125 18.78125 0.125 C 18.757812 0.125 18.730469 0.132812 18.71875 0.152344 M 22.265625 4.140625 C 22.265625 7.941406 22.265625 8.160156 22.3125 8.171875 C 22.351562 8.1875 22.351562 8.183594 22.324219 8.160156 C 22.269531 8.101562 22.277344 0.140625 22.335938 0.160156 C 22.359375 0.167969 22.367188 0.164062 22.363281 0.152344 C 22.265625 0 22.265625 0 22.265625 4.140625 M 22.480469 0.242188 C 22.480469 0.25 22.523438 0.273438 22.5625 0.296875 C 22.609375 0.320312 22.648438 0.335938 22.648438 0.328125 C 22.648438 0.316406 22.609375 0.292969 22.5625 0.269531 C 22.523438 0.25 22.480469 0.234375 22.480469 0.242188 M 22.679688 0.347656 C 22.679688 0.355469 22.714844 0.378906 22.757812 0.40625 C 22.804688 0.425781 22.84375 0.4375 22.84375 0.433594 C 22.84375 0.425781 22.804688 0.398438 22.757812 0.375 C 22.714844 0.355469 22.679688 0.339844 22.679688 0.347656 M 18.238281 0.417969 C 18.179688 0.449219 18.128906 0.476562 18.128906 0.480469 C 18.128906 0.492188 18.179688 0.476562 18.242188 0.441406 C 18.300781 0.414062 18.351562 0.382812 18.351562 0.375 C 18.351562 0.359375 18.351562 0.359375 18.238281 0.417969 M 22.871094 0.453125 C 22.871094 0.464844 22.90625 0.484375 22.953125 0.511719 C 23 0.535156 23.035156 0.546875 23.035156 0.539062 C 23.035156 0.53125 23 0.507812 22.953125 0.480469 C 22.90625 0.460938 22.871094 0.449219 22.871094 0.453125 M 23.0625 0.5625 C 23.0625 0.570312 23.101562 0.59375 23.144531 0.617188 C 23.191406 0.640625 23.226562 0.652344 23.226562 0.644531 C 23.226562 0.636719 23.191406 0.613281 23.144531 0.589844 C 23.101562 0.570312 23.0625 0.554688 23.0625 0.5625 M 17.820312 0.644531 C 17.71875 0.699219 17.722656 0.71875 17.828125 0.671875 C 17.875 0.648438 17.910156 0.621094 17.910156 0.617188 C 17.910156 0.601562 17.90625 0.601562 17.820312 0.644531 M 23.527344 0.828125 C 23.527344 0.832031 23.566406 0.859375 23.613281 0.882812 C 23.65625 0.902344 23.695312 0.917969 23.695312 0.910156 C 23.695312 0.902344 23.65625 0.878906 23.613281 0.859375 C 23.566406 0.832031 23.527344 0.820312 23.527344 0.828125 M 17.296875 0.9375 C 17.195312 0.992188 17.199219 1.011719 17.304688 0.964844 C 17.347656 0.941406 17.386719 0.917969 17.386719 0.910156 C 17.386719 0.894531 17.382812 0.894531 17.296875 0.9375 M 23.859375 1.011719 C 23.859375 1.023438 23.898438 1.046875 23.945312 1.070312 C 23.988281 1.09375 24.027344 1.105469 24.027344 1.101562 C 24.027344 1.089844 23.988281 1.066406 23.945312 1.039062 C 23.898438 1.019531 23.859375 1.007812 23.859375 1.011719 M 16.964844 1.125 C 16.863281 1.179688 16.871094 1.199219 16.972656 1.148438 C 17.019531 1.128906 17.054688 1.101562 17.054688 1.097656 C 17.054688 1.074219 17.054688 1.078125 16.964844 1.125 M 16.773438 1.230469 C 16.671875 1.28125 16.675781 1.308594 16.78125 1.253906 C 16.828125 1.234375 16.863281 1.210938 16.863281 1.203125 C 16.863281 1.183594 16.859375 1.183594 16.773438 1.230469 M 16.523438 1.359375 C 16.421875 1.421875 16.429688 1.441406 16.53125 1.390625 C 16.578125 1.363281 16.613281 1.339844 16.613281 1.332031 C 16.613281 1.320312 16.609375 1.320312 16.523438 1.359375 M 16.195312 1.550781 C 16.09375 1.601562 16.097656 1.628906 16.199219 1.574219 C 16.246094 1.550781 16.285156 1.53125 16.285156 1.519531 C 16.285156 1.503906 16.28125 1.503906 16.195312 1.550781 M 16 1.65625 C 15.898438 1.710938 15.90625 1.734375 16.007812 1.679688 C 16.054688 1.660156 16.09375 1.632812 16.09375 1.628906 C 16.09375 1.609375 16.089844 1.609375 16 1.65625 M 15.808594 1.761719 C 15.707031 1.816406 15.710938 1.839844 15.816406 1.789062 C 15.863281 1.765625 15.898438 1.742188 15.898438 1.734375 C 15.898438 1.714844 15.898438 1.714844 15.808594 1.761719 M 15.617188 1.871094 C 15.515625 1.921875 15.515625 1.949219 15.621094 1.890625 C 15.671875 1.871094 15.707031 1.84375 15.707031 1.839844 C 15.707031 1.824219 15.703125 1.824219 15.617188 1.871094 M 15.425781 1.980469 C 15.320312 2.03125 15.324219 2.054688 15.429688 2 C 15.476562 1.980469 15.515625 1.953125 15.515625 1.949219 C 15.515625 1.929688 15.511719 1.929688 15.425781 1.980469 M 15.234375 2.082031 C 15.128906 2.136719 15.132812 2.160156 15.234375 2.105469 C 15.28125 2.085938 15.320312 2.058594 15.320312 2.054688 C 15.320312 2.035156 15.316406 2.035156 15.234375 2.082031 M 14.898438 2.269531 C 14.792969 2.324219 14.804688 2.34375 14.910156 2.296875 C 14.953125 2.269531 14.992188 2.246094 14.992188 2.238281 C 14.992188 2.222656 14.988281 2.222656 14.898438 2.269531 M 14.570312 2.453125 C 14.464844 2.507812 14.472656 2.535156 14.578125 2.476562 C 14.621094 2.457031 14.65625 2.433594 14.65625 2.425781 C 14.65625 2.40625 14.65625 2.410156 14.570312 2.453125 M 14.375 2.5625 C 14.273438 2.617188 14.277344 2.636719 14.382812 2.585938 C 14.429688 2.5625 14.464844 2.539062 14.464844 2.535156 C 14.464844 2.515625 14.464844 2.515625 14.375 2.5625 M 14.183594 2.667969 C 14.078125 2.722656 14.085938 2.742188 14.191406 2.691406 C 14.234375 2.667969 14.273438 2.648438 14.273438 2.640625 C 14.273438 2.621094 14.273438 2.621094 14.183594 2.667969 M 13.992188 2.773438 C 13.886719 2.828125 13.894531 2.851562 13.996094 2.796875 C 14.042969 2.777344 14.078125 2.753906 14.078125 2.746094 C 14.078125 2.726562 14.078125 2.726562 13.992188 2.773438 M 13.742188 2.90625 C 13.636719 2.960938 13.644531 2.984375 13.753906 2.933594 C 13.792969 2.910156 13.832031 2.886719 13.832031 2.878906 C 13.832031 2.859375 13.832031 2.863281 13.742188 2.90625 M 13.550781 3.011719 C 13.445312 3.066406 13.453125 3.089844 13.554688 3.039062 C 13.601562 3.015625 13.636719 2.992188 13.636719 2.984375 C 13.636719 2.96875 13.632812 2.96875 13.550781 3.011719 M 13.21875 3.199219 C 13.117188 3.253906 13.121094 3.277344 13.226562 3.226562 C 13.273438 3.203125 13.3125 3.179688 13.3125 3.171875 C 13.3125 3.152344 13.308594 3.152344 13.21875 3.199219 M 13.027344 3.308594 C 12.921875 3.359375 12.929688 3.386719 13.03125 3.328125 C 13.078125 3.308594 13.117188 3.285156 13.117188 3.277344 C 13.117188 3.261719 13.113281 3.261719 13.027344 3.308594 M 12.832031 3.414062 C 12.730469 3.46875 12.734375 3.492188 12.839844 3.4375 C 12.886719 3.414062 12.921875 3.390625 12.921875 3.386719 C 12.921875 3.367188 12.917969 3.367188 12.832031 3.414062 M 12.636719 3.519531 C 12.539062 3.574219 12.542969 3.597656 12.648438 3.542969 C 12.695312 3.523438 12.730469 3.5 12.730469 3.492188 C 12.730469 3.46875 12.726562 3.472656 12.636719 3.519531 M 11.730469 4.027344 C 11.628906 4.078125 11.632812 4.101562 11.738281 4.050781 C 11.785156 4.027344 11.820312 4 11.820312 3.996094 C 11.820312 3.980469 11.816406 3.980469 11.730469 4.027344 M 11.207031 4.316406 C 11.105469 4.375 11.109375 4.394531 11.214844 4.34375 C 11.261719 4.320312 11.296875 4.296875 11.296875 4.289062 C 11.296875 4.273438 11.292969 4.273438 11.207031 4.316406 M 10.433594 4.742188 C 10.332031 4.796875 10.339844 4.820312 10.441406 4.765625 C 10.488281 4.746094 10.523438 4.722656 10.523438 4.714844 C 10.523438 4.699219 10.519531 4.699219 10.433594 4.742188 M 10.050781 4.957031 C 9.949219 5.007812 9.949219 5.035156 10.058594 4.980469 C 10.105469 4.960938 10.140625 4.9375 10.140625 4.929688 C 10.140625 4.90625 10.136719 4.910156 10.050781 4.957031 M 9.855469 5.0625 C 9.75 5.117188 9.757812 5.140625 9.867188 5.085938 C 9.910156 5.066406 9.945312 5.042969 9.945312 5.035156 C 9.945312 5.015625 9.945312 5.019531 9.855469 5.0625 M 9.664062 5.171875 C 9.558594 5.222656 9.566406 5.246094 9.667969 5.195312 C 9.714844 5.171875 9.75 5.148438 9.75 5.144531 C 9.75 5.121094 9.75 5.125 9.664062 5.171875 M 9.46875 5.277344 C 9.367188 5.328125 9.375 5.351562 9.476562 5.300781 C 9.527344 5.277344 9.558594 5.257812 9.558594 5.25 C 9.558594 5.226562 9.558594 5.226562 9.46875 5.277344 M 9.144531 5.464844 C 9.039062 5.515625 9.046875 5.539062 9.148438 5.488281 C 9.191406 5.464844 9.230469 5.4375 9.230469 5.433594 C 9.230469 5.417969 9.230469 5.417969 9.144531 5.464844 M 8.753906 5.675781 C 8.652344 5.726562 8.660156 5.753906 8.761719 5.699219 C 8.808594 5.679688 8.84375 5.652344 8.84375 5.644531 C 8.84375 5.628906 8.839844 5.628906 8.753906 5.675781 M 8.179688 5.992188 C 8.074219 6.050781 8.082031 6.070312 8.1875 6.023438 C 8.226562 5.992188 8.269531 5.972656 8.269531 5.964844 C 8.269531 5.949219 8.265625 5.949219 8.179688 5.992188 M 7.988281 6.101562 C 7.878906 6.15625 7.886719 6.175781 7.992188 6.128906 C 8.035156 6.101562 8.070312 6.078125 8.070312 6.070312 C 8.070312 6.054688 8.066406 6.054688 7.988281 6.101562 M 7.789062 6.207031 C 7.6875 6.261719 7.695312 6.28125 7.796875 6.234375 C 7.84375 6.207031 7.878906 6.183594 7.878906 6.175781 C 7.878906 6.164062 7.875 6.164062 7.789062 6.207031 M 7.597656 6.3125 C 7.496094 6.371094 7.503906 6.390625 7.605469 6.339844 C 7.648438 6.3125 7.6875 6.292969 7.6875 6.28125 C 7.6875 6.269531 7.683594 6.269531 7.597656 6.3125 M 6.6875 6.820312 C 6.585938 6.875 6.589844 6.898438 6.695312 6.84375 C 6.742188 6.820312 6.777344 6.796875 6.777344 6.789062 C 6.777344 6.773438 6.777344 6.773438 6.6875 6.820312 M 6.496094 6.929688 C 6.390625 6.980469 6.398438 7.003906 6.503906 6.949219 C 6.546875 6.929688 6.585938 6.902344 6.585938 6.898438 C 6.585938 6.878906 6.585938 6.878906 6.496094 6.929688 M 6.304688 7.035156 C 6.199219 7.085938 6.207031 7.109375 6.308594 7.054688 C 6.355469 7.035156 6.390625 7.015625 6.390625 7.003906 C 6.390625 6.984375 6.390625 6.984375 6.304688 7.035156 M 5.972656 7.222656 C 5.867188 7.273438 5.875 7.296875 5.980469 7.246094 C 6.027344 7.222656 6.066406 7.195312 6.066406 7.191406 C 6.066406 7.171875 6.0625 7.175781 5.972656 7.222656 M 5.78125 7.328125 C 5.675781 7.378906 5.683594 7.398438 5.785156 7.351562 C 5.832031 7.328125 5.867188 7.304688 5.867188 7.296875 C 5.867188 7.28125 5.867188 7.28125 5.78125 7.328125 M 5.585938 7.433594 C 5.484375 7.484375 5.492188 7.507812 5.589844 7.457031 C 5.636719 7.433594 5.675781 7.410156 5.675781 7.398438 C 5.675781 7.386719 5.671875 7.386719 5.585938 7.433594 M 5.394531 7.539062 C 5.289062 7.59375 5.300781 7.613281 5.398438 7.5625 C 5.445312 7.539062 5.484375 7.511719 5.484375 7.507812 C 5.484375 7.492188 5.480469 7.492188 5.394531 7.539062 M 5.066406 7.722656 C 4.960938 7.78125 4.964844 7.800781 5.070312 7.75 C 5.113281 7.726562 5.152344 7.703125 5.152344 7.695312 C 5.152344 7.679688 5.148438 7.679688 5.066406 7.722656 M 4.816406 7.859375 C 4.710938 7.914062 4.71875 7.933594 4.820312 7.882812 C 4.867188 7.859375 4.90625 7.835938 4.90625 7.828125 C 4.90625 7.8125 4.902344 7.8125 4.816406 7.859375 M 4.625 7.960938 C 4.519531 8.015625 4.527344 8.039062 4.625 7.988281 C 4.671875 7.964844 4.710938 7.941406 4.710938 7.933594 C 4.710938 7.917969 4.707031 7.921875 4.625 7.960938 M 4.429688 8.070312 C 4.328125 8.125 4.332031 8.148438 4.433594 8.097656 C 4.480469 8.070312 4.519531 8.046875 4.519531 8.039062 C 4.519531 8.023438 4.515625 8.027344 4.429688 8.070312 M 22.371094 8.199219 C 22.371094 8.210938 22.410156 8.234375 22.457031 8.253906 C 22.5 8.277344 22.539062 8.289062 22.539062 8.28125 C 22.539062 8.277344 22.5 8.25 22.457031 8.230469 C 22.410156 8.207031 22.371094 8.191406 22.371094 8.199219 M 18.5625 8.257812 C 18.460938 8.3125 18.46875 8.335938 18.570312 8.28125 C 18.617188 8.257812 18.65625 8.234375 18.65625 8.226562 C 18.65625 8.210938 18.652344 8.210938 18.5625 8.257812 M 3.960938 8.335938 C 3.859375 8.390625 3.863281 8.414062 3.96875 8.363281 C 4.015625 8.339844 4.050781 8.3125 4.050781 8.308594 C 4.050781 8.289062 4.046875 8.292969 3.960938 8.335938 M 22.5625 8.308594 C 22.5625 8.3125 22.601562 8.339844 22.648438 8.363281 C 22.691406 8.382812 22.730469 8.394531 22.730469 8.390625 C 22.730469 8.382812 22.691406 8.359375 22.648438 8.335938 C 22.601562 8.3125 22.5625 8.300781 22.5625 8.308594 M 3.765625 8.445312 C 3.664062 8.496094 3.667969 8.519531 3.773438 8.46875 C 3.824219 8.445312 3.859375 8.421875 3.859375 8.417969 C 3.859375 8.394531 3.855469 8.394531 3.765625 8.445312 M 18.238281 8.445312 C 18.128906 8.496094 18.136719 8.519531 18.242188 8.46875 C 18.285156 8.445312 18.320312 8.421875 18.320312 8.417969 C 18.320312 8.394531 18.316406 8.394531 18.238281 8.445312 M 3.574219 8.550781 C 3.472656 8.601562 3.476562 8.628906 3.582031 8.574219 C 3.625 8.550781 3.664062 8.527344 3.664062 8.523438 C 3.664062 8.503906 3.664062 8.503906 3.574219 8.550781 M 3.382812 8.660156 C 3.28125 8.710938 3.285156 8.734375 3.386719 8.683594 C 3.433594 8.660156 3.472656 8.632812 3.472656 8.628906 C 3.472656 8.609375 3.46875 8.609375 3.382812 8.660156 M 23.171875 8.65625 C 23.171875 8.660156 23.222656 8.691406 23.28125 8.71875 C 23.34375 8.75 23.394531 8.773438 23.394531 8.761719 C 23.394531 8.753906 23.34375 8.722656 23.28125 8.695312 C 23.222656 8.664062 23.171875 8.644531 23.171875 8.65625 M 17.710938 8.734375 C 17.605469 8.789062 17.613281 8.808594 17.71875 8.761719 C 17.757812 8.738281 17.796875 8.714844 17.796875 8.707031 C 17.796875 8.691406 17.796875 8.691406 17.710938 8.734375 M 3.1875 8.765625 C 3.085938 8.816406 3.09375 8.839844 3.195312 8.785156 C 3.242188 8.765625 3.28125 8.742188 3.28125 8.734375 C 3.28125 8.714844 3.277344 8.714844 3.1875 8.765625 M 23.421875 8.785156 C 23.421875 8.792969 23.460938 8.816406 23.503906 8.839844 C 23.550781 8.863281 23.585938 8.875 23.585938 8.867188 C 23.585938 8.863281 23.550781 8.835938 23.503906 8.8125 C 23.460938 8.792969 23.421875 8.777344 23.421875 8.785156 M 2.996094 8.871094 C 2.894531 8.921875 2.898438 8.945312 3 8.890625 C 3.050781 8.871094 3.085938 8.847656 3.085938 8.839844 C 3.085938 8.824219 3.082031 8.824219 2.996094 8.871094 M 2.804688 8.976562 C 2.703125 9.03125 2.703125 9.054688 2.808594 9 C 2.859375 8.980469 2.894531 8.949219 2.894531 8.945312 C 2.894531 8.929688 2.890625 8.929688 2.804688 8.976562 M 2.613281 9.082031 C 2.507812 9.136719 2.511719 9.15625 2.617188 9.105469 C 2.664062 9.085938 2.703125 9.058594 2.703125 9.054688 C 2.703125 9.039062 2.699219 9.039062 2.613281 9.082031 M 23.945312 9.078125 C 23.945312 9.085938 23.980469 9.109375 24.027344 9.132812 C 24.074219 9.15625 24.109375 9.167969 24.109375 9.15625 C 24.109375 9.15625 24.074219 9.128906 24.027344 9.105469 C 23.980469 9.085938 23.945312 9.070312 23.945312 9.078125 M 16.992188 9.136719 C 16.890625 9.1875 16.898438 9.214844 16.996094 9.15625 C 17.046875 9.136719 17.082031 9.113281 17.082031 9.105469 C 17.082031 9.089844 17.078125 9.089844 16.992188 9.136719 M 2.421875 9.1875 C 2.316406 9.242188 2.320312 9.265625 2.421875 9.214844 C 2.46875 9.191406 2.507812 9.164062 2.507812 9.15625 C 2.507812 9.144531 2.503906 9.144531 2.421875 9.1875 M 2.226562 9.296875 C 2.121094 9.347656 2.128906 9.371094 2.230469 9.320312 C 2.277344 9.296875 2.316406 9.269531 2.316406 9.265625 C 2.316406 9.246094 2.3125 9.25 2.226562 9.296875 M 24.414062 9.34375 C 24.414062 9.351562 24.449219 9.375 24.492188 9.402344 C 24.542969 9.421875 24.578125 9.4375 24.578125 9.425781 C 24.578125 9.417969 24.542969 9.394531 24.492188 9.371094 C 24.449219 9.351562 24.414062 9.335938 24.414062 9.34375 M 2.03125 9.402344 C 1.929688 9.453125 1.9375 9.476562 2.039062 9.425781 C 2.085938 9.40625 2.121094 9.378906 2.121094 9.371094 C 2.121094 9.355469 2.121094 9.359375 2.03125 9.402344 M 16.523438 9.402344 C 16.421875 9.453125 16.429688 9.476562 16.53125 9.425781 C 16.578125 9.40625 16.613281 9.378906 16.613281 9.371094 C 16.613281 9.355469 16.609375 9.359375 16.523438 9.402344 M 1.839844 9.507812 C 1.738281 9.5625 1.742188 9.582031 1.84375 9.535156 C 1.894531 9.507812 1.929688 9.484375 1.929688 9.476562 C 1.929688 9.460938 1.925781 9.464844 1.839844 9.507812 M 16.332031 9.507812 C 16.230469 9.5625 16.234375 9.582031 16.339844 9.535156 C 16.386719 9.507812 16.421875 9.484375 16.421875 9.476562 C 16.421875 9.460938 16.417969 9.464844 16.332031 9.507812 M 24.742188 9.535156 C 24.742188 9.539062 24.792969 9.570312 24.851562 9.597656 C 24.914062 9.628906 24.964844 9.648438 24.964844 9.640625 C 24.964844 9.632812 24.914062 9.601562 24.851562 9.574219 C 24.792969 9.542969 24.742188 9.523438 24.742188 9.535156 M 1.648438 9.617188 C 1.542969 9.667969 1.550781 9.6875 1.652344 9.640625 C 1.699219 9.617188 1.738281 9.59375 1.738281 9.585938 C 1.738281 9.566406 1.734375 9.570312 1.648438 9.617188 M 16.085938 9.640625 C 15.980469 9.695312 15.988281 9.71875 16.09375 9.664062 C 16.136719 9.644531 16.171875 9.617188 16.171875 9.613281 C 16.171875 9.59375 16.171875 9.59375 16.085938 9.640625 M 25.265625 9.828125 C 25.265625 9.828125 25.304688 9.859375 25.351562 9.878906 C 25.394531 9.898438 25.433594 9.914062 25.433594 9.90625 C 25.433594 9.898438 25.394531 9.875 25.351562 9.855469 C 25.304688 9.828125 25.265625 9.816406 25.265625 9.828125 M 1.125 9.90625 C 1.019531 9.960938 1.023438 9.984375 1.132812 9.929688 C 1.175781 9.910156 1.210938 9.886719 1.210938 9.878906 C 1.210938 9.859375 1.207031 9.859375 1.125 9.90625 M 15.617188 9.90625 C 15.515625 9.960938 15.515625 9.984375 15.621094 9.929688 C 15.671875 9.910156 15.707031 9.886719 15.707031 9.878906 C 15.707031 9.859375 15.703125 9.859375 15.617188 9.90625 M 25.460938 9.929688 C 25.460938 9.9375 25.496094 9.964844 25.542969 9.984375 C 25.585938 10.003906 25.625 10.019531 25.625 10.011719 C 25.625 10.003906 25.585938 9.980469 25.542969 9.957031 C 25.496094 9.933594 25.460938 9.921875 25.460938 9.929688 M 15.425781 10.011719 C 15.320312 10.066406 15.324219 10.09375 15.429688 10.039062 C 15.476562 10.015625 15.515625 9.992188 15.515625 9.984375 C 15.515625 9.96875 15.511719 9.96875 15.425781 10.011719 M 0.789062 10.09375 C 0.691406 10.148438 0.695312 10.171875 0.796875 10.117188 C 0.847656 10.09375 0.882812 10.070312 0.882812 10.066406 C 0.882812 10.046875 0.878906 10.046875 0.789062 10.09375 M 25.789062 10.117188 C 25.789062 10.121094 25.828125 10.148438 25.871094 10.171875 C 25.921875 10.195312 25.957031 10.210938 25.957031 10.199219 C 25.957031 10.191406 25.921875 10.167969 25.871094 10.144531 C 25.828125 10.121094 25.789062 10.109375 25.789062 10.117188 M 0.542969 10.226562 C 0.441406 10.28125 0.449219 10.300781 0.550781 10.25 C 0.59375 10.226562 0.632812 10.207031 0.632812 10.199219 C 0.632812 10.179688 0.628906 10.179688 0.542969 10.226562 M 15.039062 10.226562 C 14.9375 10.28125 14.941406 10.300781 15.042969 10.25 C 15.089844 10.226562 15.128906 10.207031 15.128906 10.199219 C 15.128906 10.179688 15.125 10.179688 15.039062 10.226562 M 14.707031 10.414062 C 14.601562 10.46875 14.609375 10.492188 14.714844 10.4375 C 14.757812 10.417969 14.792969 10.390625 14.792969 10.386719 C 14.792969 10.367188 14.792969 10.367188 14.707031 10.414062 M 26.367188 10.4375 C 26.367188 10.445312 26.40625 10.46875 26.449219 10.492188 C 26.496094 10.515625 26.535156 10.53125 26.535156 10.519531 C 26.535156 10.511719 26.496094 10.488281 26.449219 10.464844 C 26.40625 10.441406 26.367188 10.429688 26.367188 10.4375 M 14.515625 10.519531 C 14.410156 10.570312 14.417969 10.59375 14.519531 10.542969 C 14.566406 10.523438 14.601562 10.496094 14.601562 10.492188 C 14.601562 10.472656 14.597656 10.472656 14.515625 10.519531 M 26.835938 10.703125 C 26.835938 10.707031 26.875 10.738281 26.921875 10.757812 C 26.964844 10.777344 27.003906 10.792969 27.003906 10.785156 C 27.003906 10.777344 26.964844 10.753906 26.921875 10.730469 C 26.875 10.707031 26.835938 10.695312 26.835938 10.703125 M 13.992188 10.8125 C 13.886719 10.867188 13.894531 10.886719 13.996094 10.835938 C 14.042969 10.8125 14.078125 10.789062 14.078125 10.78125 C 14.078125 10.769531 14.078125 10.769531 13.992188 10.8125 M 13.328125 11.183594 C 13.226562 11.234375 13.234375 11.261719 13.335938 11.207031 C 13.378906 11.1875 13.417969 11.164062 13.417969 11.15625 C 13.417969 11.136719 13.414062 11.140625 13.328125 11.183594 M 27.6875 11.179688 C 27.6875 11.1875 27.726562 11.210938 27.773438 11.234375 C 27.816406 11.261719 27.855469 11.269531 27.855469 11.265625 C 27.855469 11.257812 27.816406 11.234375 27.773438 11.207031 C 27.726562 11.1875 27.6875 11.175781 27.6875 11.179688 M 27.941406 11.3125 C 27.941406 11.324219 27.976562 11.347656 28.023438 11.371094 C 28.066406 11.390625 28.105469 11.40625 28.105469 11.398438 C 28.105469 11.390625 28.066406 11.367188 28.023438 11.339844 C 27.976562 11.320312 27.941406 11.304688 27.941406 11.3125 M 12.613281 11.585938 C 12.511719 11.636719 12.511719 11.660156 12.621094 11.609375 C 12.667969 11.585938 12.703125 11.558594 12.703125 11.554688 C 12.703125 11.539062 12.699219 11.539062 12.613281 11.585938 M 28.40625 11.582031 C 28.40625 11.585938 28.445312 11.613281 28.492188 11.636719 C 28.535156 11.65625 28.570312 11.671875 28.570312 11.664062 C 28.570312 11.65625 28.535156 11.632812 28.492188 11.609375 C 28.445312 11.585938 28.40625 11.574219 28.40625 11.582031 M 12.253906 11.785156 C 12.195312 11.8125 12.152344 11.84375 12.152344 11.851562 C 12.152344 11.855469 12.199219 11.839844 12.261719 11.808594 C 12.320312 11.777344 12.375 11.75 12.375 11.742188 C 12.375 11.726562 12.371094 11.726562 12.253906 11.785156 M 11.898438 11.984375 C 11.792969 12.039062 11.800781 12.058594 11.902344 12.007812 C 11.949219 11.984375 11.988281 11.960938 11.988281 11.953125 C 11.988281 11.9375 11.984375 11.9375 11.898438 11.984375 M 29.070312 11.953125 C 29.070312 11.960938 29.105469 11.984375 29.152344 12.007812 C 29.199219 12.03125 29.234375 12.042969 29.234375 12.035156 C 29.234375 12.027344 29.199219 12.003906 29.152344 11.980469 C 29.105469 11.960938 29.070312 11.945312 29.070312 11.953125 M 11.453125 12.234375 C 11.386719 12.28125 11.324219 12.320312 11.324219 12.324219 C 11.324219 12.332031 11.390625 12.300781 11.460938 12.257812 C 11.539062 12.214844 11.601562 12.175781 11.601562 12.164062 C 11.601562 12.148438 11.589844 12.148438 11.453125 12.234375 M 29.753906 12.40625 C 29.769531 12.433594 29.785156 12.476562 29.792969 12.5 C 29.808594 12.53125 29.808594 12.53125 29.808594 12.5 C 29.808594 12.476562 29.792969 12.433594 29.769531 12.40625 C 29.730469 12.355469 29.730469 12.355469 29.753906 12.40625 M 29.226562 13.074219 C 29.128906 13.128906 29.128906 13.152344 29.234375 13.097656 C 29.28125 13.078125 29.320312 13.054688 29.320312 13.046875 C 29.320312 13.023438 29.316406 13.027344 29.226562 13.074219 M 12.09375 13.230469 C 12.09375 13.234375 12.132812 13.261719 12.179688 13.285156 C 12.222656 13.308594 12.261719 13.320312 12.261719 13.3125 C 12.261719 13.304688 12.222656 13.28125 12.179688 13.257812 C 12.132812 13.234375 12.09375 13.226562 12.09375 13.230469 M 28.703125 13.367188 C 28.601562 13.421875 28.609375 13.445312 28.710938 13.390625 C 28.753906 13.371094 28.792969 13.34375 28.792969 13.339844 C 28.792969 13.320312 28.789062 13.320312 28.703125 13.367188 M 12.429688 13.414062 C 12.429688 13.425781 12.464844 13.445312 12.507812 13.472656 C 12.554688 13.492188 12.59375 13.507812 12.59375 13.5 C 12.59375 13.488281 12.554688 13.46875 12.507812 13.445312 C 12.464844 13.421875 12.429688 13.410156 12.429688 13.414062 M 28.511719 13.472656 C 28.40625 13.527344 28.414062 13.550781 28.519531 13.496094 C 28.566406 13.476562 28.601562 13.449219 28.601562 13.445312 C 28.601562 13.429688 28.597656 13.429688 28.511719 13.472656 M 12.632812 13.53125 C 12.648438 13.546875 12.722656 13.589844 12.796875 13.632812 C 12.871094 13.671875 12.925781 13.695312 12.910156 13.679688 C 12.890625 13.664062 12.820312 13.621094 12.742188 13.578125 C 12.671875 13.535156 12.617188 13.515625 12.632812 13.53125 M 12.953125 13.710938 C 12.953125 13.71875 12.992188 13.742188 13.03125 13.765625 C 13.078125 13.785156 13.117188 13.796875 13.117188 13.792969 C 13.117188 13.785156 13.078125 13.761719 13.03125 13.738281 C 12.992188 13.714844 12.953125 13.699219 12.953125 13.710938 M 27.988281 13.765625 C 27.886719 13.820312 27.886719 13.839844 27.996094 13.792969 C 28.042969 13.765625 28.078125 13.742188 28.078125 13.734375 C 28.078125 13.722656 28.074219 13.722656 27.988281 13.765625 M 13.144531 13.816406 C 13.144531 13.824219 13.183594 13.847656 13.226562 13.871094 C 13.273438 13.894531 13.3125 13.90625 13.3125 13.902344 C 13.3125 13.890625 13.273438 13.867188 13.226562 13.839844 C 13.183594 13.820312 13.144531 13.808594 13.144531 13.816406 M 13.488281 14.007812 C 13.503906 14.023438 13.578125 14.070312 13.65625 14.109375 C 13.726562 14.148438 13.777344 14.171875 13.761719 14.160156 C 13.75 14.144531 13.671875 14.097656 13.59375 14.054688 C 13.523438 14.015625 13.472656 13.992188 13.488281 14.007812 M 27.464844 14.058594 C 27.363281 14.113281 27.367188 14.136719 27.46875 14.082031 C 27.519531 14.0625 27.554688 14.039062 27.554688 14.03125 C 27.554688 14.011719 27.550781 14.015625 27.464844 14.058594 M 13.996094 14.292969 C 13.996094 14.300781 14.035156 14.328125 14.078125 14.351562 C 14.125 14.371094 14.164062 14.386719 14.164062 14.378906 C 14.164062 14.367188 14.125 14.34375 14.078125 14.324219 C 14.035156 14.300781 13.996094 14.289062 13.996094 14.292969 M 26.914062 14.367188 C 26.855469 14.398438 26.808594 14.425781 26.808594 14.429688 C 26.808594 14.4375 26.855469 14.421875 26.921875 14.390625 C 26.980469 14.359375 27.03125 14.328125 27.03125 14.324219 C 27.03125 14.304688 27.03125 14.304688 26.914062 14.367188 M 26.691406 14.488281 C 26.589844 14.539062 26.597656 14.5625 26.699219 14.507812 C 26.746094 14.488281 26.78125 14.460938 26.78125 14.457031 C 26.78125 14.4375 26.777344 14.4375 26.691406 14.488281 M 14.398438 14.515625 C 14.410156 14.53125 14.488281 14.574219 14.558594 14.617188 C 14.636719 14.660156 14.683594 14.679688 14.675781 14.664062 C 14.65625 14.648438 14.585938 14.605469 14.507812 14.5625 C 14.429688 14.519531 14.382812 14.5 14.398438 14.515625 M 26.363281 14.671875 C 26.257812 14.722656 26.265625 14.75 26.367188 14.695312 C 26.414062 14.675781 26.449219 14.648438 26.449219 14.640625 C 26.449219 14.625 26.445312 14.625 26.363281 14.671875 M 14.714844 14.691406 C 14.714844 14.703125 14.75 14.726562 14.792969 14.75 C 14.839844 14.773438 14.875 14.78125 14.875 14.78125 C 14.875 14.769531 14.839844 14.75 14.792969 14.71875 C 14.75 14.699219 14.714844 14.6875 14.714844 14.691406 M 26.167969 14.78125 C 26.066406 14.832031 26.074219 14.851562 26.175781 14.804688 C 26.21875 14.78125 26.257812 14.753906 26.257812 14.75 C 26.257812 14.730469 26.253906 14.734375 26.167969 14.78125 M 15.234375 14.988281 C 15.234375 14.992188 15.273438 15.019531 15.320312 15.042969 C 15.363281 15.0625 15.402344 15.074219 15.402344 15.070312 C 15.402344 15.0625 15.363281 15.039062 15.320312 15.015625 C 15.273438 14.992188 15.234375 14.980469 15.234375 14.988281 M 15.566406 15.171875 C 15.566406 15.179688 15.605469 15.203125 15.648438 15.226562 C 15.695312 15.25 15.734375 15.265625 15.734375 15.253906 C 15.734375 15.246094 15.695312 15.222656 15.648438 15.203125 C 15.605469 15.179688 15.566406 15.167969 15.566406 15.171875 M 25.316406 15.257812 C 25.210938 15.308594 25.21875 15.335938 25.320312 15.277344 C 25.367188 15.257812 25.40625 15.234375 25.40625 15.226562 C 25.40625 15.210938 25.402344 15.210938 25.316406 15.257812 M 15.757812 15.277344 C 15.757812 15.285156 15.796875 15.3125 15.839844 15.335938 C 15.886719 15.355469 15.925781 15.371094 15.925781 15.363281 C 15.925781 15.355469 15.886719 15.332031 15.839844 15.308594 C 15.796875 15.285156 15.757812 15.273438 15.757812 15.277344 M 15.957031 15.386719 C 15.957031 15.394531 15.992188 15.417969 16.035156 15.441406 C 16.082031 15.464844 16.117188 15.476562 16.117188 15.46875 C 16.117188 15.460938 16.082031 15.4375 16.035156 15.414062 C 15.992188 15.390625 15.957031 15.382812 15.957031 15.386719 M 24.929688 15.46875 C 24.828125 15.523438 24.832031 15.546875 24.933594 15.492188 C 24.980469 15.472656 25.019531 15.449219 25.019531 15.441406 C 25.019531 15.421875 25.015625 15.421875 24.929688 15.46875 M 16.285156 15.570312 C 16.285156 15.582031 16.320312 15.601562 16.367188 15.628906 C 16.414062 15.652344 16.449219 15.664062 16.449219 15.65625 C 16.449219 15.648438 16.414062 15.625 16.367188 15.597656 C 16.320312 15.578125 16.285156 15.566406 16.285156 15.570312 M 24.601562 15.660156 C 24.496094 15.710938 24.5 15.734375 24.605469 15.679688 C 24.648438 15.660156 24.683594 15.632812 24.683594 15.628906 C 24.683594 15.609375 24.683594 15.609375 24.601562 15.660156 M 16.613281 15.757812 C 16.613281 15.765625 16.652344 15.792969 16.699219 15.8125 C 16.742188 15.835938 16.78125 15.847656 16.78125 15.839844 C 16.78125 15.835938 16.742188 15.808594 16.699219 15.789062 C 16.652344 15.765625 16.613281 15.75 16.613281 15.757812 M 24.265625 15.839844 C 24.164062 15.894531 24.167969 15.917969 24.273438 15.867188 C 24.324219 15.84375 24.359375 15.820312 24.359375 15.8125 C 24.359375 15.796875 24.355469 15.800781 24.265625 15.839844 M 16.804688 15.867188 C 16.804688 15.875 16.84375 15.898438 16.890625 15.921875 C 16.933594 15.945312 16.972656 15.953125 16.972656 15.949219 C 16.972656 15.941406 16.933594 15.917969 16.890625 15.894531 C 16.84375 15.871094 16.804688 15.859375 16.804688 15.867188 M 17.140625 16.050781 C 17.140625 16.058594 17.175781 16.085938 17.21875 16.105469 C 17.269531 16.125 17.304688 16.140625 17.304688 16.132812 C 17.304688 16.125 17.269531 16.101562 17.21875 16.082031 C 17.175781 16.058594 17.140625 16.042969 17.140625 16.050781 M 23.746094 16.132812 C 23.644531 16.1875 23.648438 16.214844 23.753906 16.15625 C 23.796875 16.136719 23.835938 16.113281 23.835938 16.105469 C 23.835938 16.085938 23.832031 16.089844 23.746094 16.132812 M 17.472656 16.238281 C 17.472656 16.246094 17.503906 16.269531 17.554688 16.296875 C 17.597656 16.316406 17.632812 16.328125 17.632812 16.320312 C 17.632812 16.3125 17.597656 16.289062 17.554688 16.265625 C 17.503906 16.246094 17.472656 16.230469 17.472656 16.238281 M 23.363281 16.347656 C 23.253906 16.398438 23.261719 16.425781 23.367188 16.371094 C 23.410156 16.351562 23.445312 16.328125 23.445312 16.320312 C 23.445312 16.300781 23.441406 16.300781 23.363281 16.347656 M 17.71875 16.367188 C 17.71875 16.378906 17.757812 16.402344 17.796875 16.425781 C 17.84375 16.449219 17.882812 16.460938 17.882812 16.453125 C 17.882812 16.445312 17.84375 16.421875 17.796875 16.398438 C 17.757812 16.375 17.71875 16.363281 17.71875 16.367188 M 22.972656 16.5625 C 22.871094 16.613281 22.878906 16.636719 22.980469 16.585938 C 23.023438 16.566406 23.0625 16.539062 23.0625 16.535156 C 23.0625 16.511719 23.058594 16.515625 22.972656 16.5625 M 22.640625 16.746094 C 22.539062 16.800781 22.546875 16.824219 22.648438 16.773438 C 22.691406 16.75 22.730469 16.722656 22.730469 16.71875 C 22.730469 16.703125 22.726562 16.703125 22.640625 16.746094 M 22.449219 16.855469 C 22.34375 16.90625 22.351562 16.929688 22.457031 16.878906 C 22.5 16.859375 22.539062 16.828125 22.539062 16.824219 C 22.539062 16.804688 22.535156 16.808594 22.449219 16.855469 M 18.570312 16.851562 C 18.570312 16.859375 18.605469 16.882812 18.65625 16.90625 C 18.699219 16.929688 18.734375 16.941406 18.734375 16.933594 C 18.734375 16.925781 18.699219 16.898438 18.65625 16.878906 C 18.605469 16.859375 18.570312 16.84375 18.570312 16.851562 M 22.257812 16.960938 C 22.152344 17.011719 22.160156 17.035156 22.265625 16.984375 C 22.308594 16.960938 22.34375 16.9375 22.34375 16.929688 C 22.34375 16.914062 22.34375 16.917969 22.257812 16.960938 M 21.921875 17.148438 C 21.824219 17.203125 21.832031 17.222656 21.929688 17.171875 C 21.980469 17.148438 22.015625 17.125 22.015625 17.117188 C 22.015625 17.101562 22.011719 17.101562 21.921875 17.148438 M 19.09375 17.140625 C 19.09375 17.152344 19.132812 17.175781 19.175781 17.199219 C 19.222656 17.21875 19.261719 17.234375 19.261719 17.226562 C 19.261719 17.21875 19.222656 17.195312 19.175781 17.171875 C 19.132812 17.148438 19.09375 17.136719 19.09375 17.140625 M 19.425781 17.328125 C 19.425781 17.335938 19.460938 17.359375 19.507812 17.382812 C 19.554688 17.40625 19.589844 17.417969 19.589844 17.414062 C 19.589844 17.40625 19.554688 17.382812 19.507812 17.355469 C 19.460938 17.332031 19.425781 17.320312 19.425781 17.328125 M 21.539062 17.355469 C 21.441406 17.414062 21.441406 17.4375 21.546875 17.382812 C 21.59375 17.359375 21.632812 17.335938 21.632812 17.328125 C 21.632812 17.3125 21.628906 17.3125 21.539062 17.355469 M 19.617188 17.4375 C 19.617188 17.445312 19.652344 17.46875 19.703125 17.492188 C 19.746094 17.511719 19.78125 17.523438 19.78125 17.519531 C 19.78125 17.511719 19.746094 17.488281 19.703125 17.464844 C 19.652344 17.441406 19.617188 17.425781 19.617188 17.4375 M 21.210938 17.546875 C 21.105469 17.597656 21.113281 17.625 21.21875 17.570312 C 21.261719 17.546875 21.296875 17.523438 21.296875 17.515625 C 21.296875 17.5 21.296875 17.5 21.210938 17.546875 M 19.808594 17.542969 C 19.808594 17.550781 19.847656 17.574219 19.894531 17.59375 C 19.9375 17.621094 19.976562 17.632812 19.976562 17.625 C 19.976562 17.621094 19.9375 17.59375 19.894531 17.570312 C 19.847656 17.546875 19.808594 17.53125 19.808594 17.542969 M 20.507812 17.84375 C 20.53125 17.847656 20.578125 17.847656 20.601562 17.84375 C 20.632812 17.835938 20.609375 17.828125 20.554688 17.828125 C 20.503906 17.828125 20.480469 17.835938 20.507812 17.84375 "/>
</g>
</svg>
