<?xml version="1.0" encoding="UTF-8"?>
<svg xmlns="http://www.w3.org/2000/svg" xmlns:xlink="http://www.w3.org/1999/xlink" width="40px" height="px" viewBox="0 0 40 40" version="1.1">
<g id="surface1">
<path style=" stroke:none;fill-rule:nonzero;fill:rgb(21.176471%,14.901961%,10.196079%);fill-opacity:1;" d="M 0 0 L 32.832031 0 C 34.734375 0 36.554688 0.753906 37.902344 2.097656 C 39.246094 3.445312 40 5.265625 40 7.167969 L 40 40 L 7.167969 40 C 5.265625 40 3.445312 39.246094 2.097656 37.902344 C 0.753906 36.554688 0 34.734375 0 32.832031 Z M 0 0 "/>
<path style=" stroke:none;fill-rule:nonzero;fill:rgb(100%,49.803922%,9.411765%);fill-opacity:1;" d="M 32.832031 1.816406 C 34.25 1.820312 35.609375 2.382812 36.613281 3.386719 C 37.617188 4.390625 38.179688 5.75 38.183594 7.167969 L 38.183594 38.183594 L 7.167969 38.183594 C 5.75 38.179688 4.390625 37.617188 3.386719 36.613281 C 2.382812 35.609375 1.820312 34.25 1.816406 32.832031 L 1.816406 1.816406 Z M 32.832031 0 L 0 0 L 0 32.832031 C 0 34.734375 0.753906 36.554688 2.097656 37.902344 C 3.445312 39.246094 5.265625 40 7.167969 40 L 40 40 L 40 7.167969 C 40 5.265625 39.246094 3.445312 37.902344 2.097656 C 36.554688 0.753906 34.734375 0 32.832031 0 Z M 32.832031 0 "/>
<path style=" stroke:none;fill-rule:nonzero;fill:rgb(100%,49.803922%,9.411765%);fill-opacity:1;" d="M 19.957031 23.472656 L 15.210938 23.472656 L 14.023438 27.046875 C 14.011719 27.15625 13.9375 27.207031 13.796875 27.207031 L 11.652344 27.207031 C 11.515625 27.207031 11.46875 27.140625 11.507812 27.003906 L 15.765625 14.859375 C 15.886719 14.496094 15.949219 14.109375 15.949219 13.726562 C 15.949219 13.644531 15.996094 13.601562 16.089844 13.601562 L 19.046875 13.601562 C 19.078125 13.601562 19.113281 13.613281 19.140625 13.628906 C 19.171875 13.648438 19.195312 13.675781 19.210938 13.703125 L 23.953125 27.039062 C 23.996094 27.164062 23.953125 27.226562 23.832031 27.226562 L 21.410156 27.226562 C 21.363281 27.226562 21.320312 27.214844 21.285156 27.1875 C 21.246094 27.160156 21.21875 27.125 21.203125 27.082031 Z M 15.742188 21.488281 L 19.425781 21.488281 C 19.371094 21.296875 19.085938 20.429688 18.574219 18.878906 C 18.0625 17.332031 17.726562 16.269531 17.5625 15.699219 L 17.542969 15.699219 C 17.378906 16.394531 16.78125 18.324219 15.742188 21.488281 Z M 28.140625 15.1875 C 27.976562 15.355469 27.773438 15.480469 27.550781 15.550781 C 27.328125 15.621094 27.089844 15.636719 26.859375 15.59375 C 26.628906 15.546875 26.414062 15.445312 26.230469 15.296875 C 26.050781 15.148438 25.910156 14.957031 25.820312 14.742188 C 25.730469 14.523438 25.695312 14.289062 25.722656 14.054688 C 25.746094 13.824219 25.828125 13.601562 25.960938 13.40625 C 26.09375 13.214844 26.273438 13.058594 26.480469 12.949219 C 26.691406 12.84375 26.921875 12.789062 27.15625 12.796875 C 27.339844 12.785156 27.519531 12.816406 27.6875 12.882812 C 27.859375 12.949219 28.011719 13.050781 28.140625 13.183594 C 28.390625 13.453125 28.523438 13.8125 28.507812 14.183594 C 28.515625 14.367188 28.488281 14.550781 28.425781 14.722656 C 28.363281 14.894531 28.265625 15.054688 28.140625 15.1875 Z M 25.828125 27.03125 L 25.828125 17.417969 C 25.824219 17.394531 25.824219 17.371094 25.832031 17.351562 C 25.839844 17.332031 25.851562 17.3125 25.867188 17.292969 C 25.882812 17.277344 25.902344 17.265625 25.925781 17.257812 C 25.945312 17.253906 25.96875 17.25 25.992188 17.253906 L 28.265625 17.253906 C 28.285156 17.25 28.308594 17.253906 28.328125 17.261719 C 28.351562 17.269531 28.371094 17.28125 28.386719 17.296875 C 28.402344 17.3125 28.414062 17.332031 28.421875 17.351562 C 28.429688 17.375 28.429688 17.394531 28.425781 17.417969 L 28.425781 27.046875 C 28.429688 27.066406 28.429688 27.089844 28.421875 27.113281 C 28.414062 27.132812 28.402344 27.152344 28.386719 27.167969 C 28.371094 27.183594 28.351562 27.195312 28.328125 27.203125 C 28.308594 27.210938 28.285156 27.210938 28.265625 27.207031 L 26.015625 27.207031 C 25.988281 27.210938 25.964844 27.210938 25.941406 27.203125 C 25.917969 27.195312 25.894531 27.183594 25.878906 27.164062 C 25.859375 27.148438 25.847656 27.128906 25.835938 27.105469 C 25.828125 27.082031 25.824219 27.054688 25.828125 27.03125 Z M 25.828125 27.03125 "/>
</g>
</svg>
